<svg xmlns="http://www.w3.org/2000/svg" width="865.76" height="682.89" viewBox="0 0 865.76 682.89">
  <defs>
    <clipPath id="a">
      <path d="M145.39 451.21s-155.1-78.69-74.25-268.38c0 0 56-145.24 256-145.06 0 0 37.31-2.5 88 3 0 0 47.31 3 91-9 0 0 176.05-43.88 250.66 52.86 0 0 43.77 43.05 57.7 145.18 0 0 23 118.24-111.35 203.93 0 0-142 97.66-367 78.71.1.01-106.88-11.79-190.76-61.24" fill="none"/>
    </clipPath>
    <clipPath id="b">
      <path fill="#fddfd2" d="M334.27 166.11h98.61v152.71h-98.61z"/>
    </clipPath>
  </defs>
  <g style="isolation:isolate">
    <g clip-path="url(#a)">
      <path d="M32.75 3.94h798.46v522.31H32.75z"/>
      <path fill="#fff" opacity=".7" d="M32.75 3.94h798.46v522.31H32.75z"/>
      <path fill="#f0f5fc" d="M94.31 73.24h231.17v286.38H94.31z"/>
      <path fill="#fff" d="M100.67 73.24h217.4V355.6h-217.4z"/>
      <path fill="#f9e4de" d="M255.9 73.24h5.86v286.38h-5.86zm-81.83 0h5.86v286.38h-5.86z"/>
      <path fill="#f9e4de" d="M96.13 133.13h228.94v6.9H96.13z"/>
      <path fill="#f0f5fc" d="M514.67 73.24h231.17v286.38H514.67z"/>
      <path fill="#fff" d="M521.03 73.24h217.4V355.6h-217.4z"/>
      <path fill="#f9e4de" d="M676.25 73.24h5.86v286.38h-5.86zm-81.82 0h5.86v286.38h-5.86z"/>
      <path fill="#f9e4de" d="M516.49 133.13h228.94v6.9H516.49z"/>
      <path fill="#ffc832" d="M426.83 216.74h-11.54v1.09l11.54 11.57z"/>
      <path fill="#ffc832" d="M415.29 217.83v73.37h11.54v-61.8z"/>
      <path fill="#ffc832" d="M438.08 216.74h-11.25v12.66l11.25 11.28z"/>
      <path fill="#ffc832" d="M426.83 229.4v61.8h11.25v-50.52z"/>
      <path fill="#f5f6f6" d="M417.66 220.21v51.12h9.17V229.4z"/>
      <path fill="#fff" d="M426.83 220h-9.17v.21l9.17 9.19z"/>
      <path fill="#ecedee" d="M435.71 220h-8.88v9.4l8.88 8.9z"/>
      <path fill="#e2e3e4" d="M426.83 229.4v41.93h8.88V238.3zm-.14 56.6a4.86 4.86 0 0 1 0-9.72h.17a4.86 4.86 0 0 1 0 9.71h-.17Z"/>
      <path d="M422.56 281.13a4.13 4.13 0 0 0 4.13 4.14h.14V277h-.14a4.13 4.13 0 0 0-4.13 4.13" fill="#f5f6f6"/>
      <path d="M426.83 277v8.25a4.13 4.13 0 0 0 0-8.25" fill="#e2e3e4"/>
      <path d="M449.62 216.74h-11.54v23.94l11.54 11.56z"/>
      <path d="M438.08 240.68v50.52h11.54v-38.96zm22.79-23.94h-11.25v35.5l11.25 11.28z"/>
      <path d="M449.62 252.24v38.96h11.25v-27.68z"/>
      <path fill="#fff" d="M449.62 220h-9.17v23.05l9.17 9.19z"/>
      <path fill="#f5f6f6" d="M440.45 243.05v28.28h9.17v-19.09z"/>
      <path fill="#ecedee" d="M458.5 220h-8.88v32.24l8.88 8.9z"/>
      <path fill="#e2e3e4" d="M449.62 252.24v19.09h8.88v-10.19zm-.15 33.76a4.86 4.86 0 0 1 0-9.72h.18a4.86 4.86 0 0 1 0 9.71h-.18Z"/>
      <path d="M445.35 281.13a4.12 4.12 0 0 0 4.12 4.14h.15V277h-.15a4.12 4.12 0 0 0-4.12 4.13" fill="#f5f6f6"/>
      <path d="M449.62 277v8.25a4.13 4.13 0 0 0 0-8.25" fill="#e2e3e4"/>
      <path d="m395.6 213.59-16.66 72.56 11.25 2.59 16.66-72.56zm22.21 5.12-10.96-2.53-16.66 72.56 10.96 2.53z"/>
      <path fill="#fff" d="m397.18 217.3-11.49 50.01 8.95 2.07 11.48-50.02z"/>
      <path fill="#e6e7e8" d="m414.77 221.36-8.65-2-11.48 50.02 8.65 1.99z"/>
      <path d="M392.3 283.75a4.7 4.7 0 0 1-.92-.08h-.14a4.86 4.86 0 0 1 1.08-9.6 5 5 0 0 1 1.09.12h.14a4.85 4.85 0 0 1-1.25 9.54Z" fill="#e2e3e4"/>
      <path d="M393.22 274.87a4.13 4.13 0 0 0-1.85 8.06h.15l1.84-8Z" fill="#fff"/>
      <path d="M396.32 279.83a4.13 4.13 0 0 0-3-4.92l-1.84 8a4.14 4.14 0 0 0 4.84-3.08" fill="#e6e7e8"/>
      <path fill="#f9c4b7" d="M368.98 291.6h103.38v8.42H368.98z"/>
      <path d="M419.17 100.39a39.75 39.75 0 1 0 39.65 39.75 39.7 39.7 0 0 0-39.65-39.75" fill="#a7a9ac" style="mix-blend-mode:multiply"/>
      <path d="M461.83 138.63a39.66 39.66 0 1 1-39.65-39.75 39.71 39.71 0 0 1 39.65 39.75" fill="#fff"/>
      <path d="M454.27 138.63a32.1 32.1 0 1 1-32.09-32.18 32.14 32.14 0 0 1 32.09 32.18" fill="#f9e4de"/>
      <path fill="#fcd6ca" d="m445.94 125.3-21.46 15.95-21.46-8.93-1.38 3.31 21.1 8.78.38.16.19-.14 23.73-17.64z"/>
    </g>
    <ellipse cx="412.67" cy="624.72" rx="318.08" ry="36.32"/>
    <ellipse cx="412.67" cy="624.72" rx="318.08" ry="36.32" fill="#fff" opacity=".7"/>
    <rect x="284.14" y="106.77" width="364.29" height="513.99" rx="10.93"/>
    <path fill="#fff" d="M299.52 119.7h335.41v477.47H299.52z"/>
    <path d="M267.06 573.07s-.41 3.1 2.94 11.32a60 60 0 0 0 3.44 6.94 27.83 27.83 0 0 1 3.67 16.26s-2.68 19.84 7 17.26c0 0 4.14.55 10.05-13.83a44.1 44.1 0 0 0 3.24-18.27l-.51-15.75a63 63 0 0 1 .45-9.68c.68-5.79.5-16.13-9.95-14.64 0 0-5.67 1.29-8.48 0Z" fill="#ffc832"/>
    <path fill="#fddfd2" d="M334.27 166.11h98.61v152.71h-98.61z"/>
    <g clip-path="url(#b)">
      <path d="m371.72 450.11-3 2.54a10.6 10.6 0 0 1-4.72 1.52h-8.31c-1.72 0-1-1.78-1-1.78a.83.83 0 0 0 .8.58h7.4c3.45.41 7.76-3.43 8.79-4.4a1.4 1.4 0 0 0 .32-.57c0-.1.07-.22.1-.33a2.4 2.4 0 0 1-.38 2.44" fill="#272727"/>
      <path d="M364.25 429.1v6.13a4.36 4.36 0 0 0-.79 2.83s4.32-1.15 7 1.23h1.76s.18-8.31 1.06-9.93Zm39.97-.02v6.14a4.36 4.36 0 0 1 .79 2.83s-4.32-1.15-7 1.23h-1.76s-.18-8.31-1.06-9.93Z" fill="#ffb8ca"/>
      <path d="M366.11 281s-6.18 7.71-9.28 28.06a85 85 0 0 0-.89 15.64l3.48 104.3 17.69.51 6.61-65.92 6.14 66.36h18.44l2.85-70.95.8-40.94s-.41-24.29-10.74-37.94l-7.08-6.55-21.9 5.83Z" fill="#272727"/>
      <path d="M367.39 217.17s-3.1-1.43-3.22-8.47c0 0-.36-1.07.72-8.47 0 0 1.19-6.08 1.9-10.25 0 0 1.2-9.43 10.26-11.69a23.08 23.08 0 0 1 14.63.61 11.06 11.06 0 0 1 4.11 2.91c2 2.3 4.84 6.81 5.36 14.49v15.15s.71 4.41-2.87 6.2a10.5 10.5 0 0 0 .24-3s-1.55 4.29-4.65 2.5a4.8 4.8 0 0 1-3.22.48l-13.9-.48A16.2 16.2 0 0 0 370 217a1.66 1.66 0 0 1-1.56-.51 6.26 6.26 0 0 1-1.49-2.8 10.6 10.6 0 0 0 .44 3.48" fill="#ffc832"/>
      <path d="M366.13 203.3c0 .73.05 1.46.06 2.18s0 1.45.07 2.17.07 1.43.15 2.15a13 13 0 0 0 .39 2.12 6.6 6.6 0 0 1-.75-2.07 12.4 12.4 0 0 1-.26-2.18 17.3 17.3 0 0 1 .34-4.37m27.22 13.08c.11-.55.16-1.1.22-1.64l.15-1.65c0-.55.1-1.1.17-1.65a16 16 0 0 1 .24-1.65 14.4 14.4 0 0 1 .06 3.35 14 14 0 0 1-.26 1.66 5.4 5.4 0 0 1-.58 1.58" opacity=".2"/>
      <path d="M371.13 203.3h.64v6.49h-.64z"/>
      <ellipse cx="371.38" cy="210.98" rx="1.14" ry="2.1"/>
      <path d="M390.78 214v5.31l-7 4.69-6.56-4.86v-4.74a9.68 9.68 0 0 0 6.56 2.74 9.88 9.88 0 0 0 7-3.14" fill="#ffb8ca"/>
      <path d="m394.13 222.86-7.26 7-3.07-5.11-3.21 5.11-7-7.46 1.76-2.51a1.38 1.38 0 0 1 1.93-.76l6.56 4.86 7-4.69c1.02-.68 3.29 3.56 3.29 3.56" fill="#272727"/>
      <path d="M425.87 281a30.2 30.2 0 0 0-4.32 6.35c-1.08 2.77-5.47 3.11-5.47 3.11l-1.82 1.29a.61.61 0 0 1-.89-.18l-5.25-8.85a1.18 1.18 0 0 1 .1-1.34l.49-.58a47 47 0 0 1 1.19-5.69 5.8 5.8 0 0 0 .21-2 3.5 3.5 0 0 1 .58-2 5.8 5.8 0 0 0-.13-1.72.46.46 0 0 0-.88 0 26 26 0 0 1-3.75 8.65 4.54 4.54 0 0 1-3.76 2.06 19.6 19.6 0 0 1-5.27-.9 4.6 4.6 0 0 0-1.77-.16C384 280.28 365.48 281 365.48 281l-.67.22c.22 1.35-.68 1.69-.68 1.69l-5.63 3.14a6.77 6.77 0 0 1-7.41 0l-4.72-2.05c-2.7-1.24-2.82-6.75-2.82-6.75-1-11 5.85-35.76 5.85-35.76a15.3 15.3 0 0 1 10.6-13.43l13.57-5.62 7 7.46 3.21-5.11 3.07 5.11 7.26-7 15.53 7c8.24 3.12 11.08 15.59 11.08 15.59 5.61 10.34 7.09 26.08 7.09 26.08a14.25 14.25 0 0 1-1.94 9.43"/>
      <path d="M356 236.68c.81 1.5 1.57 3 2.3 4.57s1.42 3.1 2.06 4.68 1.24 3.19 1.74 4.82a21 21 0 0 1 .63 2.5 7.5 7.5 0 0 1 .11 2.63c-.31 2.21-.63 4.42-1 6.62s-.69 4.4-1.07 6.6c.24-2.22.49-4.43.77-6.65s.55-4.42.85-6.63a7.3 7.3 0 0 0-.13-2.45c-.17-.82-.38-1.64-.62-2.45-.48-1.63-1.06-3.23-1.67-4.81-1.24-3.2-2.6-6.32-3.97-9.43m28.26 5.16c-.08-1.27-.12-2.54-.15-3.8s-.05-2.54-.06-3.8v-7.6a30 30 0 0 1 .39 3.79c.08 1.27.11 2.54.12 3.8s0 2.54 0 3.81-.19 2.53-.3 3.8m16.95 36.64c.58-.77 1.13-1.56 1.68-2.34s1.06-1.59 1.56-2.41 1-1.64 1.42-2.48.86-1.72 1.26-2.59a16 16 0 0 1-.92 2.75 21 21 0 0 1-1.36 2.57 21.3 21.3 0 0 1-3.64 4.5m7.47-16.34a18.5 18.5 0 0 1 .11-6.46 19 19 0 0 1 .86-3.14l1.08-3c.75-2 1.49-4 2.26-6.05l1.16-3c.4-1 .79-2 1.21-3-.32 1-.66 2.05-1 3.07l-1 3.06c-.7 2-1.44 4-2.16 6.08a51 51 0 0 0-2 6.09 21 21 0 0 0-.46 3.17 19 19 0 0 0-.06 3.18m1.99 7.86a10 10 0 0 1 1.41-.83c.5-.23 1-.45 1.53-.63a16 16 0 0 1 3.2-.78 16.6 16.6 0 0 1 3.3-.13c.55 0 1.09.1 1.63.16s1.08.2 1.61.32c-1.09-.06-2.17-.15-3.25-.12a25 25 0 0 0-3.22.24 24 24 0 0 0-3.16.66 18.6 18.6 0 0 0-3.05 1.11m-.92 11.22a52 52 0 0 1 3.41 4c1.07 1.4 2.11 2.82 3 4.32a48 48 0 0 1-3.41-4 51 51 0 0 1-3-4.32" opacity=".2"/>
      <path fill="#ffb8ca" d="m413.37 291.6-2.05 2.07-.36.37-.68.69-.34.33-.6.62-.12.13-.12.28-2.67 6.77-6.1-10.96 3.6-2.18.24-.15.12-.17.92-1.28.36-.5 2.97-4.16z"/>
      <path d="m405.56 291.77-.39.26a17 17 0 0 1-1.24-2.31l.24-.15.12-.17a20 20 0 0 0 1.27 2.37m3.78 3.91-.12.13-.12.28a11.8 11.8 0 0 1-2.15-2l.36-.29a11 11 0 0 0 2.03 1.88" fill="#ffc832"/>
      <circle cx="405.69" cy="292.3" r=".66" fill="#ffc832"/>
      <circle cx="407" cy="293.72" r=".66" fill="#ffc832"/>
      <path d="M407.56 291.59a10.6 10.6 0 0 0 2.72 3.14l-.34.34c-2.21-1.37-4.35-6.08-4.73-6.95l.36-.5c2.13 4.58 5.27 5.87 5.75 6.05l-.32.33a9 9 0 0 1-3.44-2.41" fill="#ffc832"/>
      <path d="M364.55 283.46a39 39 0 0 0 4.8.78c.8.1 1.61.16 2.41.25l2.42.16c3.24.18 6.48.19 9.71.09s6.48-.29 9.71-.54c1.61-.13 3.22-.3 4.84-.45l4.83-.55c-1.6.27-3.2.52-4.8.78s-3.23.41-4.84.59l-2.43.22c-.8.08-1.61.14-2.42.19l-2.44.14c-.81.05-1.62.06-2.43.09a96 96 0 0 1-9.75-.2l-2.43-.23c-.8-.1-1.61-.18-2.41-.31a35 35 0 0 1-4.77-1.01"/>
      <circle cx="383.11" cy="282.48" r="1.25"/>
      <path d="M398.17 287.9c.88 1.36 1.71 2.76 2.53 4.15s1.63 2.81 2.42 4.22 1.57 2.84 2.33 4.28l1.12 2.15c.37.73.74 1.45 1.09 2.18-.44-.68-.86-1.38-1.29-2.07l-1.24-2.09c-.83-1.39-1.63-2.8-2.42-4.22s-1.57-2.83-2.32-4.27-1.51-2.87-2.22-4.33m-31.79-.6a26.7 26.7 0 0 1-1.19 4.48 42 42 0 0 1-1.78 4.29 45 45 0 0 1-2.25 4.06c-.4.66-.85 1.29-1.28 1.93s-.91 1.25-1.39 1.86c.8-1.33 1.61-2.63 2.36-4l.56-1 .53-1c.37-.68.7-1.37 1-2.06q1-2.07 1.87-4.21c.29-.71.56-1.43.81-2.15s.55-1.5.76-2.2m16.73 25.28c.12 4 .18 8 .24 12l.13 12v18l-.09 6-.14-6-.1-6-.13-12v-12c-.02-3.99-.02-7.99.09-12m-11.01 135.1c0 .11-.07.23-.1.33a1.4 1.4 0 0 1-.36.56c-1 1-5.34 4.81-8.79 4.4h-7.4a.83.83 0 0 1-.8-.58c-.3-1-.46-3 2.28-5.25a67 67 0 0 0 6.53-9.08s4.23-1.33 7 1.23h1.76s.6 5.62-.12 8.39"/>
      <path d="M362.33 441a7 7 0 0 1 1.57-.21 7.7 7.7 0 0 1 1.59.1 6 6 0 0 1 1.55.44 3.4 3.4 0 0 1 1.29.94 6.5 6.5 0 0 0-1.42-.6 13 13 0 0 0-1.49-.32c-1.01-.15-2.04-.22-3.09-.35m-1.87 2.4a7 7 0 0 1 1.58-.21 8.5 8.5 0 0 1 1.59.09 7.2 7.2 0 0 1 1.55.44 3.6 3.6 0 0 1 1.29.95 6.7 6.7 0 0 0-1.42-.6 11 11 0 0 0-1.49-.32c-1.02-.17-2.04-.23-3.1-.35" opacity=".2"/>
      <path d="M396.37 447.67a3 3 0 0 0 .1.33 1.35 1.35 0 0 0 .36.55c1 1 5.33 4.82 8.79 4.41H413a.83.83 0 0 0 .8-.58c.3-1 .46-3-2.28-5.25a67 67 0 0 1-6.53-9.08s-4.23-1.33-7 1.23h-1.76s-.58 5.62.14 8.39"/>
      <path d="m396.75 450.1 3 2.54a10.6 10.6 0 0 0 4.71 1.52h8.31c1.73 0 1-1.78 1-1.78a.83.83 0 0 1-.8.58h-7.4c-3.46.41-7.76-3.43-8.79-4.41a1.35 1.35 0 0 1-.36-.55 3 3 0 0 1-.1-.33 2.4 2.4 0 0 0 .43 2.43" fill="#272727"/>
      <path d="M406.14 441c-1.05.12-2.08.18-3.09.35a11 11 0 0 0-1.49.32 6.5 6.5 0 0 0-1.42.6 3.4 3.4 0 0 1 1.29-.94 6.4 6.4 0 0 1 1.55-.45 8.5 8.5 0 0 1 1.59-.09 7 7 0 0 1 1.57.21m1.86 2.39c-1.06.11-2.09.18-3.1.35a11 11 0 0 0-1.49.32 7 7 0 0 0-1.42.59 3.5 3.5 0 0 1 1.29-.94 6.5 6.5 0 0 1 1.55-.44 8.5 8.5 0 0 1 1.59-.09 7 7 0 0 1 1.58.21" opacity=".2"/>
      <rect x="367.94" y="243.8" width="28.35" height="35.97" rx="2.9" transform="rotate(-10.71 381.952 261.698)" fill="#fff"/>
      <path d="m366.348 247.734 25.294-4.83.088.462-25.293 4.83z"/>
      <ellipse cx="379.52" cy="249.57" rx="3.56" ry="1.7" transform="rotate(-15.73 379.43 249.534)"/>
      <path d="M389.62 215.05c-3.72 7-12.39 4.12-12.39 4.12v-5.87Z" fill="#f9aac0"/>
      <path d="M396.14 199.28c0 6.12-2.12 11.52-5.36 14.75a9.88 9.88 0 0 1-7 3.14 9.68 9.68 0 0 1-6.56-2.74c-3.47-3.16-5.78-8.77-5.78-15.15 0-9.88 5.52-17.89 12.34-17.89s12.36 8.01 12.36 17.89" fill="#ffb8ca"/>
      <ellipse cx="372.02" cy="200.23" rx="2.86" ry="3.94" fill="#ffb8ca"/>
      <path d="M369.91 197.58s7-3.49 11.23-9.1c0 0-1.35 4-3.58 5.42 0 0 6.68-1.36 8-9.4 0 0 6.2.1 7.36 9l1.08 15.78 5.33-4.53-6.33-23.36-11.33-2.12-12.47 11Z" fill="#ffc832"/>
      <path d="M371.07 194.28c1-.73 2-1.5 2.95-2.28s1.9-1.6 2.8-2.45 1.8-1.7 2.66-2.6 1.69-1.81 2.54-2.74c-.35.52-.71 1-1.08 1.54s-.78 1-1.19 1.45a32 32 0 0 1-2.61 2.7 31 31 0 0 1-2.9 2.38c-.51.37-1 .72-1.55 1.06s-1.06.66-1.62.94m12.72-9.49a5.9 5.9 0 0 1-.68 1.58 6 6 0 0 1-1.11 1.33 5.4 5.4 0 0 1 .68-1.58 6 6 0 0 1 1.11-1.33m3.65-1.26a6.8 6.8 0 0 1 1.62.56 9 9 0 0 1 1.45.92 9.1 9.1 0 0 1 2.25 2.62 11.1 11.1 0 0 1 1.16 3.24c.12.56.15 1.14.22 1.7s0 1.14 0 1.71c-.09-.57-.14-1.13-.22-1.68s-.18-1.11-.34-1.65a14 14 0 0 0-.52-1.58 12 12 0 0 0-.7-1.51 10.9 10.9 0 0 0-2.07-2.57 9.3 9.3 0 0 0-2.85-1.76m-1.84.97a22 22 0 0 1 0-6.49 22 22 0 0 1 0 6.49" opacity=".2"/>
      <path d="m362.05 270.57 8.29-1.34a1.67 1.67 0 0 0 1.28-1 13 13 0 0 1 4-5.23s6.15-4.15 7.26-2.55c0 0 .56.56-2.31 2.47l-2.47 2.4s4.47-.48 6.7-1.76c0 0 4.07-3.27 5.43-2.47 0 0 1.11.64-2 2.79l-3.07 2.46a.1.1 0 0 0 .1.18l4.38-1.66a21 21 0 0 0 2-.9c1-.51 2.54-1 3-.16 0 0 .56.81-.95 1.52 0 0 1.75.72.16 2 0 0-3.12 2.3-3.91 2.67 0 0 2 .05 1.19 1.56 0 0-1.59 1.6-7.66 2.79l-9.37 1.84a4 4 0 0 0-1 .32l-8.53 3.93Z" fill="#ffb8ca"/>
      <path fill="#272727" d="m364.81 270.12 2.01 9.28 2.85-1.31-1.67-8.48z"/>
      <path d="m364.81 281.25-3-11.64-4.63-.95.72 11.83s1.35 2.15 1.43 2.39a17.6 17.6 0 0 0 3.08 1Z"/>
      <path d="M361.8 283.2c-.3-1-.55-2-.8-3s-.46-2-.67-3-.4-2-.57-3l-.24-1.52c-.07-.51-.15-1-.2-1.53.16.49.28 1 .42 1.49l.38 1.49c.25 1 .46 2 .67 3s.4 2 .57 3 .33 2.05.44 3.07m-.4-13.2a9.1 9.1 0 0 1-3.78.69 8 8 0 0 1-1.91-.37 13 13 0 0 0-1.83-.37 24 24 0 0 0-3.78-.15 13 13 0 0 0-1.87.22 9.2 9.2 0 0 0-1.83.51 9.2 9.2 0 0 1 3.68-1.09 17.7 17.7 0 0 1 3.85 0 13.4 13.4 0 0 1 1.9.41c.31.09.62.2.91.27a9 9 0 0 0 .91.17 8.5 8.5 0 0 0 1.88 0 12 12 0 0 0 1.87-.29" opacity=".2"/>
      <path d="M347.63 267.32a18.6 18.6 0 0 1 4 .78 13 13 0 0 1 1.89.74 5.1 5.1 0 0 1 1.68 1.15 9 9 0 0 0-1.82-.81c-.63-.22-1.26-.44-1.9-.63-1.3-.4-2.58-.77-3.85-1.23" opacity=".2"/>
      <circle cx="367.52" cy="274.07" r="2.71" fill="#fff"/>
      <path d="M393.72 265.33a12.23 12.23 0 0 1-7.36 3.33 24 24 0 0 1 7.36-3.33M390 270a3.87 3.87 0 0 1-3.9 1.27A5 5 0 0 1 390 270m-6.79-69.4a18.5 18.5 0 0 1-.73 5l-.1-.31a14.5 14.5 0 0 1 1.62 1.91 14.4 14.4 0 0 1-2.16-1.51 18.4 18.4 0 0 1 1.41-5.09Z" fill="#f9aac0"/>
      <ellipse cx="377.38" cy="199.38" rx=".8" ry="1.22" fill="#272727"/>
      <ellipse cx="390.15" cy="199.38" rx=".8" ry="1.22" fill="#272727"/>
      <path d="M373.71 196.35a32 32 0 0 1 5.41-.09.49.49 0 0 0 .54-.33c.19-.58.15-1.51-2.28-1.29a6.64 6.64 0 0 0-3.67 1.71m20.29 0a32 32 0 0 0-5.41-.09.51.51 0 0 1-.55-.33c-.19-.58-.15-1.51 2.28-1.29a6.66 6.66 0 0 1 3.68 1.71" fill="#272727"/>
      <path d="M379.73 209.13h8.2a4.16 4.16 0 0 1-3 2.75 4.4 4.4 0 0 1-2 0 4.26 4.26 0 0 1-3.2-2.75" fill="#fff"/>
      <path d="M371 199a4 4 0 0 0 .25 3.39A2.09 2.09 0 0 1 371 199" fill="#f9aac0"/>
    </g>
    <path d="M545.58 237.91h-90a1.7 1.7 0 1 1 0-3.39h90a1.7 1.7 0 1 1 0 3.39m51.36-49.16h-90a1.7 1.7 0 1 1 0-3.39h90a1.7 1.7 0 1 1 0 3.39m0 17.07H455.57a1.7 1.7 0 0 1 0-3.4h141.37a1.7 1.7 0 0 1 0 3.4m0 17.06H455.57a1.7 1.7 0 1 1 0-3.39h141.37a1.7 1.7 0 1 1 0 3.39" fill="#fddfd2"/>
    <circle cx="562.13" cy="236.21" r="3.1" fill="#fddfd2"/>
    <circle cx="576.48" cy="236.21" r="3.1" fill="#fddfd2"/>
    <circle cx="590.97" cy="236.21" r="3.1" fill="#fddfd2"/>
    <path d="M545.58 319.16h-90a1.7 1.7 0 1 1 0-3.39h90a1.7 1.7 0 1 1 0 3.39M596.94 270h-90a1.7 1.7 0 1 1 0-3.39h90a1.7 1.7 0 1 1 0 3.39m0 17.07H455.57a1.7 1.7 0 1 1 0-3.39h141.37a1.7 1.7 0 1 1 0 3.39m0 17.07H455.57a1.7 1.7 0 0 1 0-3.4h141.37a1.7 1.7 0 0 1 0 3.4" fill="#fddfd2"/>
    <circle cx="562.13" cy="317.47" r="3.1" fill="#fddfd2"/>
    <circle cx="576.48" cy="317.47" r="3.1" fill="#fddfd2"/>
    <circle cx="590.97" cy="317.47" r="3.1" fill="#fddfd2"/>
    <path d="M551.93 378.31H334.27a1.7 1.7 0 0 1 0-3.39h217.66a1.7 1.7 0 1 1 0 3.39m42.14-32.09h-259.8a1.7 1.7 0 0 1 0-3.4h259.8a1.7 1.7 0 0 1 0 3.4m0 17.06h-259.8a1.7 1.7 0 0 1 0-3.39h259.8a1.7 1.7 0 0 1 0 3.39" fill="#fddfd2"/>
    <circle cx="562.13" cy="376.61" r="3.1" fill="#fddfd2"/>
    <circle cx="576.48" cy="376.61" r="3.1" fill="#fddfd2"/>
    <circle cx="590.97" cy="376.61" r="3.1" fill="#fddfd2"/>
    <path d="M555 514.93H337.33a1.7 1.7 0 1 1 0-3.39H555a1.7 1.7 0 1 1 0 3.39m42.12-32.09H337.33a1.7 1.7 0 0 1 0-3.4h259.79a1.7 1.7 0 1 1 0 3.4m0-18.33H373.54a1.7 1.7 0 1 1 0-3.39h223.58a1.7 1.7 0 1 1 0 3.39m0 35.39H337.33a1.7 1.7 0 1 1 0-3.39h259.79a1.7 1.7 0 1 1 0 3.39" fill="#fddfd2"/>
    <circle cx="565.19" cy="513.23" r="3.1" fill="#fddfd2"/>
    <circle cx="579.54" cy="513.23" r="3.1" fill="#fddfd2"/>
    <circle cx="562.02" cy="559.1" r="3.1" fill="#fddfd2"/>
    <circle cx="576.37" cy="559.1" r="3.1" fill="#fddfd2"/>
    <circle cx="590.85" cy="559.1" r="3.1" fill="#fddfd2"/>
    <path d="M551.93 437.46H334.27a1.7 1.7 0 0 1 0-3.4h217.66a1.7 1.7 0 1 1 0 3.4m42.14-32.1H373.54a1.7 1.7 0 1 1 0-3.39h220.53a1.7 1.7 0 0 1 0 3.39m0 17.07h-259.8a1.7 1.7 0 0 1 0-3.4h259.8a1.7 1.7 0 0 1 0 3.4" fill="#fddfd2"/>
    <circle cx="562.13" cy="435.76" r="3.1" fill="#fddfd2"/>
    <circle cx="576.48" cy="435.76" r="3.1" fill="#fddfd2"/>
    <circle cx="590.97" cy="435.76" r="3.1" fill="#fddfd2"/>
    <path d="M597.12 544.5H459.93a1.7 1.7 0 0 1 0-3.39h137.19a1.7 1.7 0 1 1 0 3.39m-45.19 16.29h-127a1.7 1.7 0 0 1 0-3.39h127a1.7 1.7 0 1 1 0 3.39" fill="#fddfd2"/>
    <path fill="#231f20" d="M397.84 119.7H537.2v12.73H397.84z"/>
    <path d="M527.53 84.37h-39.72c0-.43.05-.87.05-1.31a20.51 20.51 0 0 0-41 0c0 .44 0 .88.05 1.31h-39.4a9.67 9.67 0 0 0-9.67 9.63v25.5H537.2V94a9.67 9.67 0 0 0-9.67-9.63m-60.18 9.46a10.77 10.77 0 1 1 10.76-10.77 10.77 10.77 0 0 1-10.76 10.77" fill="#272727"/>
    <path d="M295.38 308.07s2 16.86-11.24 19.95l1.68 22.48s2.54 9.95 1.41 13.26a64.2 64.2 0 0 0-22.23 2.63 83 83 0 0 1-9.85 2.43c-10.78 1.93-33.53 5.4-51.11 4.16V310H199s2 13.77-10.68 18.27c0 0-18 3.36-14.32-23.32l14.78-62.52s1.87-15 15.18-15.57l21.72-7 23.85-.2 28.15 11.07s16 3.66 16 20.8c.01.07 3.11 29.57 1.7 56.54" fill="#ffc832"/>
    <circle cx="594.02" cy="513.23" r="3.1" fill="#fddfd2"/>
    <path d="M263.86 188.69c0 13.28-6 24.49-14.25 28a3 3 0 0 1-.36.16 13.8 13.8 0 0 1-5.13 1c-6.91 0-13-5.24-16.51-13.18a36.4 36.4 0 0 1-2.15-6.42 42 42 0 0 1-1.08-9.55c0-16.1 8.84-29.16 19.74-29.16s19.74 13.05 19.74 29.15" fill="#ffb8ca"/>
    <path d="M222.77 185s2.52.39 3.49 1.36c0 0 2.13-7 8.34-9.89 0 0 8.45-4.2 7.36-10.38a16.2 16.2 0 0 0 8.43 4.43 17.56 17.56 0 0 1 8.38 3.54 18.8 18.8 0 0 1 3.74 4s4.34 12.49-2.38 27.65c0 0-3.39 7.81-10.87 11.09l.27 2.9 10.47 4.14a69 69 0 0 0 7-11.48s-2.92 9.07-5.25 12.17l2.13.82s13.59-19.78 8-46.93c0 0-7.95-32.77-34.33-26.17 0 0-16.09-1.17-21.71 14.73 0 0-3.11 11.44-8.15 16.1 0 0-21.91 18.62-3.68 43.83l1.61-.52s-13.83-16.55-1-34.2c0 0-8.94 19.24 2.3 33.79l18.84-6.06Z" fill="#272727"/>
    <path d="M249.27 216.78c0-.1-.22-.27 0-.27Zm.38 7.22c-1 9.28-10.78 8.68-10.78 8.68-11.83.18-13.19-12.79-13.19-12.79L223.85 198l1.46.11.16.09a35.5 35.5 0 0 0 2.14 6.41c3.53 7.94 9.61 13.18 16.52 13.18a13.9 13.9 0 0 0 5.13-1v.3l.22 2.61a17.2 17.2 0 0 1 .17 4.3" fill="#ffb8ca"/>
    <path d="M249.65 224c-3.73.47-19.77 1.28-22-19.39 3.53 7.94 9.61 13.18 16.52 13.18a13.9 13.9 0 0 0 5.13-1l.05.28.22 2.61a17.2 17.2 0 0 1 .08 4.32" fill="#f9aac0"/>
    <path d="M271.6 283.42c.12-2.57.38-5 .73-7.53s.83-5 1.37-7.41 1.26-4.86 2.07-7.23a47.6 47.6 0 0 1 3-6.84 62 62 0 0 0-1.93 7.15c-.48 2.42-.89 4.84-1.17 7.28s-.5 4.88-.65 7.32-.26 4.92-.27 7.31Zm23.88 22.41c-2.06-2.41-3.77-4.89-5.58-7.3-.91-1.19-1.8-2.4-2.74-3.57s-1.93-2.29-3-3.46a12.1 12.1 0 0 1 4.13 2.36 20.8 20.8 0 0 1 3.23 3.48 24.7 24.7 0 0 1 2.43 4 18 18 0 0 1 1.53 4.49M276 321.84a9.25 9.25 0 0 1-3.13-2.69 22 22 0 0 1-2.22-3.4 25 25 0 0 1-1.6-3.71 18 18 0 0 1-.93-4 24 24 0 0 1 2.34 3.31c.69 1.13 1.35 2.27 2 3.43s1.19 2.33 1.77 3.5 1.06 2.39 1.77 3.56m-81.21-71.09a59 59 0 0 1 2 7.75 58 58 0 0 1 1 7.87l-2 .24a55 55 0 0 1-.94-7.87 58 58 0 0 1-.06-7.99" opacity=".2"/>
    <path d="M261.13 321.76a.42.42 0 0 1-.25.09Z" fill="none" stroke="#ed1c24" stroke-miterlimit="10"/>
    <path d="m261.13 321.76-.25.09H206a.42.42 0 0 1-.34-.19l-36.79-53.11a.42.42 0 0 1 .35-.66h56.57a.42.42 0 0 1 .35.19l35.13 53.11a.43.43 0 0 1-.14.57"/>
    <path d="m262.9 321.15-1.77.61a.43.43 0 0 0 .1-.57l-35.13-53.11a.42.42 0 0 0-.35-.19h-56.57l2-2a3 3 0 0 1 2.06-.85h52.59a3.28 3.28 0 0 1 2.75 1.5l34.69 53.54a.7.7 0 0 1-.37 1.07m2.73 158.1s23.95-89.53 21.6-115.49a64.2 64.2 0 0 0-22.23 2.63 83 83 0 0 1-9.85 2.43c-10.78 1.93-33.53 5.4-51.11 4.16 0 0-27 78.62-29.31 102.76 0 0-3.08 16 4.19 22.47l49 48.91-2.5 33.21a26 26 0 0 0 23.86 3.78s1.57-6.33 3.76-16A89.9 89.9 0 0 0 272.31 548s-4.84-5.84-12.05-14c4.19-22.14 7.52-45.27 5.37-54.75m-55.27 6.25 19.48-53.5s4.66 26.76 1.75 67.19l-.3 4c-7.62-7.48-15.03-13.97-20.93-17.69" fill="#272727"/>
    <path d="m229.84 432 2.7-36.36-.16 66.52s-1.08-23.69-2.54-30.16M228 547.12l24.44 24 .68-2.94s12.13-9.46 19.21-20.12c0 0-17.28 18.42-22.17 18.42Zm-17.64-61.62s42.89 40.41 49.9 48.5c0 0-34.2-38.9-49.9-48.5" fill="#231f20"/>
    <path d="m258.81 563.53 8.25 9.54s1.73-1 6.34-1.68a7.35 7.35 0 0 0 5.59-4c1.33-2.79 2.12-7.4-.08-14.65l-7.46-3.42Z" fill="#ffb8ca"/>
    <path d="M282.31 619.19a27.1 27.1 0 0 0 4.36-6.71 37 37 0 0 0 2.68-7.51 51.5 51.5 0 0 0 1.3-15.85l-.11-2-.23-2q-.21-2-.39-4c-.22-2.69-.43-5.37-.47-8.07s-.08-5.39.12-8.08a39 39 0 0 1 .51-4 14.7 14.7 0 0 1 1.2-3.85 24 24 0 0 0-1.22 7.89c-.1 2.68 0 5.36.15 8s.35 5.35.62 8c.13 1.34.28 2.67.43 4l.25 2 .13 2 .11 2v4l-.16 2c-.07 1.36-.34 2.69-.52 4s-.52 2.66-.91 4a36.8 36.8 0 0 1-3 7.53 25.3 25.3 0 0 1-4.85 6.65m-13.53-38.03a4.34 4.34 0 0 1 1.58-2.15 9.1 9.1 0 0 1 2.33-1.32 12.7 12.7 0 0 1 2.56-.68 11.6 11.6 0 0 1 2.63-.08c-.83.33-1.64.58-2.45.84s-1.61.53-2.38.85a16.4 16.4 0 0 0-2.25 1 7.9 7.9 0 0 0-2.02 1.54m1.69 4.35a9.6 9.6 0 0 1 1.59-1.77 12.6 12.6 0 0 1 1.92-1.4 10.3 10.3 0 0 1 2.2-1 5.7 5.7 0 0 1 2.39-.22 28 28 0 0 0-4.08 2.05c-1.32.83-2.6 1.61-4.02 2.34m2.31 4.63a6.6 6.6 0 0 1 1.37-1.82A10.6 10.6 0 0 1 276 587a11.6 11.6 0 0 1 4.29-1.46 42 42 0 0 1-3.79 2.33c-.64.35-1.25.72-1.87 1.1s-1.19.8-1.85 1.17m1.74 3.27a6 6 0 0 1 1.51-1.78 12.6 12.6 0 0 1 1.92-1.32 12.3 12.3 0 0 1 4.36-1.48 20 20 0 0 1-1.93 1.25c-.64.39-1.3.74-1.95 1.11-1.31.72-2.59 1.41-3.91 2.22" fill="#fff"/>
    <path d="m226.62 581.16-4.77 17.35s8.29-8.44 17.74-.73l2.33-12.28s-9.06.27-15.3-4.34" fill="#ffb8ca"/>
    <path d="M246.13 630.51c4-1.89 2.23-8.23.84-11.84a25.3 25.3 0 0 0-2.28-4.38 19.54 19.54 0 0 1-2.81-9.66 10.87 10.87 0 0 0-2-6c-5.6-7.91-16.41-1.45-16.41-1.45-3.76 1.94-1.64 8.9-1.64 8.9s1.15 8.31-.87 11.75a11.8 11.8 0 0 0-1.14 2.38c-1.29 3.91-2.66 13 12 13.07.06-.01 8.18.12 14.31-2.77" fill="#ffc832"/>
    <path d="M221 623.53c1.08.36 2.16.71 3.27 1s2.19.52 3.3.7a34 34 0 0 0 6.69.47 24.4 24.4 0 0 0 6.56-1.11l1.59-.53 1.52-.73c.26-.12.52-.22.77-.35l.72-.44q.72-.45 1.47-.87a18.3 18.3 0 0 1-5.81 3.65 20.3 20.3 0 0 1-6.79 1.38 26 26 0 0 1-6.87-.72 25 25 0 0 1-6.42-2.45m7-9.53a8 8 0 0 1 2.7-2 8.45 8.45 0 0 1 3.33-.81 9.3 9.3 0 0 1 1.74.14 8 8 0 0 1 1.63.58A7.5 7.5 0 0 1 240 614a16 16 0 0 0-2.94-1.35 8.6 8.6 0 0 0-3.05-.44A13.9 13.9 0 0 0 228 614m-.63-5.45a10 10 0 0 1 2.6-1.37 11.2 11.2 0 0 1 2.89-.64 7.8 7.8 0 0 1 3 .31 5 5 0 0 1 2.43 1.7 8.4 8.4 0 0 0-2.62-.94 11.2 11.2 0 0 0-2.72-.07 22 22 0 0 0-2.76.39c-.94.19-1.86.4-2.82.62m0-4.37a6.5 6.5 0 0 1 2.24-1.39 7.6 7.6 0 0 1 2.63-.5 6.8 6.8 0 0 1 2.65.47 6.35 6.35 0 0 1 2.23 1.42 22 22 0 0 0-2.45-.67 10.4 10.4 0 0 0-2.41-.22 16 16 0 0 0-4.89.89m0-3.92a6.6 6.6 0 0 1 2.12-1.36 7.7 7.7 0 0 1 2.48-.61 5.9 5.9 0 0 1 2.56.4 4.5 4.5 0 0 1 2 1.57 9.8 9.8 0 0 0-2.23-.83 9 9 0 0 0-2.27-.15 22.6 22.6 0 0 0-4.66.98" fill="#fff"/>
    <path d="M236.79 267.89c.52-2 1.15-3.88 1.77-5.79l2.71-5.32 5.38-10.66 5.35-10.66 2.69-5.32c1.17-1.64 2.34-3.28 3.6-4.87-.53 2-1.16 3.87-1.78 5.78l-2.7 5.33-5.34 10.62-5.39 10.66-2.68 5.34c-1.17 1.67-2.33 3.31-3.61 4.89" fill="#272727"/>
    <path d="M182.62 298.66s-5.19-4.14 2.88-6.05h14.2a2.86 2.86 0 0 1 2.52 1.39 3 3 0 0 1-.37 3.3s4.91.38 3.21 4c0 0 4.34 3-.94 4.71 0 0 2.62 3.21-8.37 5.48 0 0-11.06 3-10.68-1.89 0 0-3.21-2.26-1.7-4.9 0-.04-5.15-2.17-.75-6.04" fill="#ffb8ca"/>
    <path d="M185.82 298.27a47.8 47.8 0 0 1 14-.8 48 48 0 0 1-14 .8m.95 4.22a61 61 0 0 1 15.84-.85 61.4 61.4 0 0 1-15.84.85m1.69 5.58a50.2 50.2 0 0 1 14.15-2.1 49.9 49.9 0 0 1-14.15 2.1" fill="#f9aac0"/>
    <ellipse cx="224.19" cy="190.58" rx="5.01" ry="7.65" transform="rotate(-8.43 224.088 190.525)" fill="#ffb8ca"/>
    <path d="M269.24 305.83s12.87 2.57 12.87-14.33l-17-20.18s-2.7-2.51-2.66-8.07c0-.35 0-.72.05-1.09a68.5 68.5 0 0 0-.73-12.54 6.8 6.8 0 0 0-2.83-4.61l-7.35-5.1s-8.14-4.92-7.45 2.56c0 0-3.9 3.76-1.28 6.16 0 0-.65 4.58 2.4 4.8 0 0-1.74 5.67 2.62 8.29 0 0 0 6.77 4.36 8.51 0 0 7.46 8.95 11.15 19Z" fill="#ffb8ca"/>
    <path d="M248.51 258.62a6.9 6.9 0 0 1 .15-2.71 2.43 2.43 0 0 1 .83-1.25 1.9 1.9 0 0 1 1.59-.15c.23.09.46.18.68.29l.6.38 1.1.77.54.39.29.22a1.5 1.5 0 0 1 .31.35 1.65 1.65 0 0 1 0 1.8 10 10 0 0 0-1.82 4.69 4.86 4.86 0 0 0 .45 2.43 6.8 6.8 0 0 0 1.58 2.06 6 6 0 0 1-2-1.82 5 5 0 0 1-.8-2.69 9.5 9.5 0 0 1 1.76-5.21.67.67 0 0 0 0-.72c-.06-.11-.17-.18-.37-.34l-.53-.4a11.7 11.7 0 0 0-2.07-1.47 1.26 1.26 0 0 0-1 0 1.93 1.93 0 0 0-.71.86 8.5 8.5 0 0 0-.58 2.52m8.49-7.87a40 40 0 0 0-6.79-.62 7.05 7.05 0 0 0-3.12.72 4 4 0 0 0-1.87 2.58 4.05 4.05 0 0 1 .27-1.77 3.63 3.63 0 0 1 1.17-1.47 6.4 6.4 0 0 1 3.51-1.06 13 13 0 0 1 3.54.4 13.7 13.7 0 0 1 3.29 1.22m0-3.86a37 37 0 0 1-3.81-.22c-1.25-.11-2.54-.31-3.74-.47a7.7 7.7 0 0 0-3.49.47 8 8 0 0 0-1.61.84c-.5.37-1 .76-1.53 1.12.38-.51.81-1 1.22-1.5a6.5 6.5 0 0 1 1.6-1.17 6.93 6.93 0 0 1 3.91-.75c1.31.19 2.51.42 3.76.7a37 37 0 0 1 3.69.98m-12.88-4.42a2.53 2.53 0 0 1 1.2-.85 7.4 7.4 0 0 1 1.43-.38 13.5 13.5 0 0 1 2.91-.11 17.6 17.6 0 0 1 5.59 1.34c-1 0-1.91-.06-2.85-.12l-2.81-.22c-.92-.06-1.85-.12-2.77-.12a12 12 0 0 0-1.37.08 3.3 3.3 0 0 0-1.33.38" fill="#f9aac0"/>
    <path d="M660.73 413a135.6 135.6 0 0 0-3.18-22.42c-1.58-6.65-3.82-13.43-8-18.92-3.84-5-9.34-9-15.7-9.79-6.15-.75-11.93 2-16.53 5.86-5.71 4.81-10.07 11.16-14.17 17.33a214 214 0 0 0-12.23 21.4.23.23 0 0 0 .14.27.2.2 0 0 0 .23-.07 133 133 0 0 1 10.93-17.92 114.5 114.5 0 0 1 12.61-15.26c4.28-4.12 9.59-8 15.69-8.16s11.7 3.21 15.37 7.91c4.1 5.25 6.18 11.8 7.75 18.18a135.5 135.5 0 0 1 3.15 21.4c1.2 14.77 1.53 29.63 1.86 44.44.19 8.39.3 16.77.39 25.16 0 4.28.07 8.49.1 12.74s-.19 48.74.48 52.8c.14.83 1.43.75 1.63 0a73 73 0 0 0 .57-11.63c0-4 .1-48.52.14-52.57.07-7.83.12-15.7.09-23.49-.05-15.84-.23-31.61-1.32-47.26" fill="#272727"/>
    <path d="M608.49 376.14c-1.58.64.57-18.07-6.81-20.47-10.42-3.37-34.25 2.74-47.55 20.47a39.9 39.9 0 0 0-5.71 11.93c6.58-3.19 28.32-13.25 33.77-10.17 5 2.86-26.19 12.59-35.78 18.87a71 71 0 0 0-.85 7.85c5.55-3.93 20.82-13.91 27.64-13.91 7.59 0-17.58 13.31-27.76 22.83a80.7 80.7 0 0 0 5.88 27.11c2.61-4.94 8.35-14.54 15.77-19.72 10.28-7.14 14.78 4.37 1.83 13.51-6.91 4.88-11.89 8.91-15 11.62a53 53 0 0 0 11.5 14.86 42.3 42.3 0 0 1 16.91-11.56c2.5-.87 6.61-2 11.54-3.67.87-3.24 3.3-12.93 3.51-19.18.29-7.61 9.31-3.38 5.64 10.13-.68 2.54-1.31 4.64-1.91 6.4 2.64-1.05 7.92-3.06 11-5.41.5-4.43-.25-14.62-2.06-24.26-2.25-12 6.86-12.85 8.83 2.25.93 7-.4 14.17-.84 18.87 10.31-6 18.85-18.21 18.85-18.21a45.7 45.7 0 0 0-7.13-18.87c-5.07-7.65.41-10.66 5.49-3.75 2.86 3.85 4.51 10.32 5.44 15.28 10.88-36.3-2.53-44.72-32.2-32.8M559.06 416c-2.86-4.08 6.92-11.56 9-9 2.71 3.25-6.21 13.1-9 9m65-16.68c-3.94 2.85-7.72-6.6-5.17-8.22s8.49 5.66 5.11 8.17Z" fill="#008fa3"/>
    <path d="M615 393.87c-1.34-2.64-2.74-5.26-4.28-7.8a46.6 46.6 0 0 0-4.9-7.14c.43-.51.83-1 1.27-1.55.17-.22-.13-.5-.31-.3-.5.57-1 1.15-1.43 1.72a.4.4 0 0 0-.21.25c-1.83 2.19-3.56 4.45-5.2 6.76a77 77 0 0 0-8.56 2.48c-2.86 1-5.78 2-8.56 3.19-.3.11-.16.6.14.47 2.85-1.23 5.64-2.43 8.56-3.41s5.54-1.64 8.31-2.43c-.9 1.27-1.79 2.57-2.64 3.87a101 101 0 0 0-15.19 6.21c-5.13 2.44-10.08 5.28-15 8.13-.27.16 0 .58.27.41q7.28-4.23 14.93-7.72c4.77-2.22 9.69-4.06 14.5-6.19-12.1 18.88-19.35 40.67-29.06 60.83-.12.29.33.53.45.25 3-7.14 6.38-14 9.6-20.92l8.56-18.78c.85-1.83 1.72-3.66 2.6-5.47-.53 10.09-.31 20.34-2 30.31a.26.26 0 1 0 .5.12.24.24 0 0 0 0-.12c.7-10.77 2.6-21.4 2.53-32.21v-.14q3.06-6.18 6.59-12.13c4 9.43 8.22 19 10.09 29.14 0 .31.57.17.48-.14-2.72-10.16-5.25-20.34-10.14-29.71a113 113 0 0 1 8.56-12.29c1.34 2.51 3.07 4.88 4.59 7.28s3 4.69 4.29 7.13a103 103 0 0 1 7.57 16c.1.3.6.14.47-.14-2.38-5.34-4.74-10.73-7.38-15.96m79.33 26.56c-6.54-6.55-14.13-15.15-24.26-15.13-9.75 0-16.93 7.87-21 16-4.28 8.46-5.86 18.05-7.13 27.37a332 332 0 0 0-2.59 33.65c-.17 6.25-.15 12.51 0 18.76s.32 53.19 1.43 59.4c.19 1 1.81 1 1.87 0 .29-5.25.09-51 0-56.3s0-10.37.24-15.55c.39-10.49 1.14-20.95 2.37-31.4 1.09-9.1 1.93-18.46 4.65-27.26 2.47-7.93 7.07-17 15.12-20.47 11-4.77 21.67 3.92 28.85 11.26.32.13.65-.09.45-.33" fill="#272727"/>
    <path d="M733.18 442.45c-11.81-1.21-8.56-7.63 2.2-4.81a48.9 48.9 0 0 1 16 7.69c.08-9.73-1.13-19.62-4.75-28-9.86-2.47-18.84 1.87-28 6.19s-15.36-6.88-4.53-12.26a34.31 34.31 0 0 1 29.22-.52 47 47 0 0 0-2.64-4.14 49.2 49.2 0 0 0-9-10c-8.06.65-12.53 5.62-14.91 7.13-3.4 2.23-8.75-.4-5.36-5.22 2.64-3.78 9.24-5.51 14.69-6-9.72-5.7-19.41-5.7-24.9-3.23-9.52 4.28-6.85 29.42-6.85 29.42s-25-13.36-33.14-2.85a30.7 30.7 0 0 0-5.21 12.34c8.83-3.25 19.69-4 20.7 1.26 1.09 5.58-13.85 3.94-21.62 4.84-.92 11.19 1.69 24.26 10.59 33.5 7.59-14.58 24.45-25.68 26.86-17.62s-15.7 10.09-23.13 21a48.7 48.7 0 0 0 10.38 5.79c4.06-6.06 10.81-14.43 14.05-11.89s-5.25 8.45-10.75 13.22a157.5 157.5 0 0 0 24 6.62c2-8.4 5.85-16.27 9.56-15.54s-3.48 9.52-6.59 16.15a239 239 0 0 0 33 4.17c.69-.17 5.22-13.46 7.27-30a48.1 48.1 0 0 0-17.13-3.44c-8.35-.4-9.15-9.9 3.35-8.56a32 32 0 0 1 14.45 6q.18-2.61.3-5.34a47.25 47.25 0 0 0-18.11-5.9m-3.11-13c1.27-2.86 8.91-1.83 8.17 1.65s-9.24.75-8.17-1.66ZM667.57 453c-.46-2.37 4.65-4.54 5.36-2.64s-4.72 5.81-5.36 2.64m35.93 19.48c-4-2.11 1.76-11.42 5.48-9.89 3 1.23-1.41 12-5.48 9.89" fill="#008fa3"/>
    <path d="M741.68 487.83c-5.61-9.38-11.16-18.81-17-28q-4.12-6.42-8.57-12.62c.46-.08.9-.21 1.35-.31.74-.16 1.48-.31 2.22-.43 1.73-.3 3.47-.54 5.2-.73s3.28-.24 4.93-.27a25.7 25.7 0 0 1 5.26.27c.21 0 .24-.28 0-.27-1.75 0-3.54-.16-5.3-.18s-3.41 0-5.11.12-3.19.25-4.78.49c-.87.14-1.74.28-2.61.46-.51.11-1.06.18-1.57.34q-4.54-6.27-9.45-12.29a112.7 112.7 0 0 1 30.7-9.79c.19 0 .11-.31-.07-.28a104.2 104.2 0 0 0-31.14 9.44q-2.7-3.28-5.41-6.56a94 94 0 0 1-6-7.42.14.14 0 0 0-.2 0 .14.14 0 0 0 0 .2 110 110 0 0 1 7.13 8.7 108 108 0 0 0-11.41 9.17c-3.73 3.31-7.38 6.73-10.91 10.24a.14.14 0 0 0-.06.19.15.15 0 0 0 .19.07.2.2 0 0 0 .06-.06q5.24-5.2 10.92-10c3.78-3.19 7.77-6 11.58-9.16l2.61 3.44 1.33 1.71a.15.15 0 0 0 .09.13c1.42 1.9 2.85 3.8 4.35 5.71a45.6 45.6 0 0 0-4.28 7.82c-1.26 2.65-2.36 5.38-3.37 8.13a120 120 0 0 0-4.67 17.57c0 .19.23.27.28.09a102.4 102.4 0 0 1 5.1-17.23c1.09-2.85 2.33-5.71 3.61-8.45 1.16-2.54 2.57-5 3.67-7.55 1.26 1.69 2.5 3.36 3.74 5.06.36.48.7 1 1.06 1.42 0 .12 0 .26.11.26 3.85 5.38 7.52 10.89 11.09 16.45a5 5 0 0 0-.49 1.23c-.22.67-.44 1.36-.64 2a40 40 0 0 0-1 4.17c-.25 1.33-.43 2.65-.56 4a34 34 0 0 1-.33 4.53.15.15 0 0 0 .09.18.13.13 0 0 0 .18-.09.14.14 0 0 0 0-.09 14.3 14.3 0 0 1 .32-4.28c.2-1.43.47-2.85.8-4.28s.65-2.57 1-3.84c.18-.64.38-1.27.61-1.9.12-.32.27-.68.39-1l5 7.87c3.22 5.26 6.42 10.52 9.65 15.7.03.42.46.19.31-.08m-83.22 76.6c-.1-3.93-1-48.37-1.15-52.31a173 173 0 0 0-4.31-34.59 33.2 33.2 0 0 0-9.26-17 15 15 0 0 0-9.09-4.28 15.67 15.67 0 0 0-9.65 3 33.6 33.6 0 0 0-8.12 8.56 83 83 0 0 0-6.31 10.19c-.07.14.15.22.23.1a52.2 52.2 0 0 1 13.69-15.34 16 16 0 0 1 8.63-3.6 12.8 12.8 0 0 1 9 2.85c4.6 4 7 9.72 8.56 15.49 1.89 6.85 4.2 24.53 4.68 34.25.22 4.16.9 48.87 1.77 53a.69.69 0 1 0 1.34-.32Z" fill="#272727"/>
    <path d="M634 464.71c-9-.17-18.64 6.58-18.64 6.58s5.1-17.62-9.06-17.05c-8.42.34-18.92 9.16-21 22.93 3.25-1.73 10.09-5 15.49-5.14 7.34-.13 7.84 5.61-2.28 6.48a64.3 64.3 0 0 0-13.56 2.24 37.8 37.8 0 0 0 1.7 12.72c5.71-3.43 15.29-7.07 15.57-2.34.22 3.51-9.74 3.79-14.65 5a59 59 0 0 0 8.44 15 135.5 135.5 0 0 0 20.4-4.6 39 39 0 0 0-.65-7.38c-1.19-6.28 3.43-6.39 4-.35a22 22 0 0 1-.43 6.73 60.2 60.2 0 0 0 13.09-6.16 39.8 39.8 0 0 0-2.86-13.93c-1.8-4.91 1.77-7.72 4.78-2.08 1.94 3.64 1.16 10.47.52 14.27a22.2 22.2 0 0 0 4.28-4.37c9.63-13.38 3.86-28.35-5.14-28.55M595 468c.33-2.54 6.64-2.06 6.32-.09s-6.7 2.94-6.32.09m-7.05 20.69c.61-1.63 3.34-1.43 3.21-.12s-3.62 1.19-3.21.12m37.52 8.87c-3.67.15-2.46-7.47-.32-7.77 1.76-.29 3.09 7.63.28 7.74Z" fill="#008fa3"/>
    <path d="M622.16 498.22c-.36-.94-.67-1.91-1-2.86.27 1 .53 2 .7 3a.14.14 0 0 0 .18.08.13.13 0 0 0 .12-.22" fill="#263238"/>
    <path d="M618.42 486c-.67-1.95-1.43-3.88-2.17-5.81-.4-1-.83-2-1.27-3a12.4 12.4 0 0 0-1.27-2.55 21 21 0 0 0 1.16-2.47c0-.09-.09-.14-.13-.09a30 30 0 0 0-2.77 4.29c-.38.67-.75 1.34-1.15 2a21 21 0 0 0-2.37.37c-.86.16-1.7.33-2.54.53l-2.53.58c-.83.2-1.65.47-2.51.6-.19 0-.12.34.07.27a17 17 0 0 1 2.65-.7c.82-.17 1.63-.31 2.46-.43s1.64-.22 2.47-.31l1.87-.14c-.35.58-.69 1.18-1 1.78 0 .09-.1.19-.15.29a8 8 0 0 0-2 .23c-.73.14-1.43.27-2.18.44-1.49.31-3 .67-4.41 1.07-3.07.85-6.1 1.84-9.11 2.85-.17 0-.07.32.1.26a88 88 0 0 1 9.15-2.54c1.43-.33 2.85-.66 4.35-1l2.19-.47a14 14 0 0 0 1.68-.37c-1.56 2.86-3 5.79-4.37 8.78-2.94 6.5-5.41 13.18-7.92 19.85-.07.17.19.28.25.11a180 180 0 0 1 8.38-19.42c.57-1.15 1.16-2.29 1.73-3.44a4.6 4.6 0 0 0 .14.7c.14.79.28 1.57.41 2.37.27 1.57.55 3.16.77 4.74a55 55 0 0 1 1.15 9.83c0 .2.31.2.28 0a48 48 0 0 1-.36-4.79c-.1-1.59-.22-3.31-.41-4.95s-.4-3.19-.66-4.77c-.12-.78-.27-1.57-.41-2.35a4.9 4.9 0 0 0-.44-1.72c.83-1.67 1.64-3.34 2.48-5s1.58-3.11 2.4-4.65c.34-.66.71-1.32 1.07-2a20 20 0 0 0 .94 2.38l1.1 2.67c.8 2 1.55 4 2.31 6 1.07 2.86 2.26 5.71 3.14 8.68-.87-2.93-1.6-5.89-2.57-8.7" fill="#272727"/>
    <path d="M621.19 495.34a2.6 2.6 0 0 0-.2-.69 6 6 0 0 0 .2.69" fill="#263238"/>
    <path fill="#a5b9c5" d="m691.6 551.13-1 21.07-2.55 60.5h-56.03l-2.57-60.5-1-21.07z"/>
    <path fill="#d6dfe4" d="m691.6 551.13-1 21.07h-61.15l-1-21.07z"/>
    <path fill="#a5b9c5" d="M624.47 542.61h71.11v17.04h-71.11zm12.09 90.09h9.83v8.92h-9.83z"/>
    <path fill="#d6dfe4" d="M636.56 632.7h9.83v4.47h-9.83z"/>
    <path fill="#a5b9c5" d="M673.68 632.7h9.83v8.92h-9.83z"/>
    <path fill="#d6dfe4" d="M673.68 632.7h9.83v4.47h-9.83z"/>
    <path d="M235.83 179.79a13.2 13.2 0 0 1 3.29-.69 14.3 14.3 0 0 1 3.39.07 7.7 7.7 0 0 1 3.25 1.2 3.6 3.6 0 0 1 1.63 3 4.22 4.22 0 0 0-2-2.3 9.7 9.7 0 0 0-3-.87 52 52 0 0 0-6.56-.41m20.29 3.54a5.1 5.1 0 0 1 1.54-.66 7.6 7.6 0 0 1 1.64-.25 4.87 4.87 0 0 1 3.19.91l-3.16.09a20.6 20.6 0 0 1-3.21-.09" fill="#272727"/>
    <ellipse cx="242.97" cy="187.11" rx="1.36" ry="2.12" fill="#272727"/>
    <ellipse cx="259.31" cy="189.23" rx="1.36" ry="2.12" fill="#272727"/>
    <path d="M251.13 191.36a21 21 0 0 1 1 2c.3.67.57 1.34.83 2 .52 1.36 1 2.73 1.39 4.13l.18.63h-.62a33 33 0 0 1-4.73-.46 34 34 0 0 1 4.73-.46l-.44.61c-.5-1.36-1-2.74-1.35-4.14-.21-.7-.39-1.4-.55-2.11s-.34-1.47-.44-2.2" fill="#f9aac0"/>
    <path d="m241.61 203.81 12.27 1.09a13 13 0 0 1-1.76 2.18A6.16 6.16 0 0 1 242 205a11 11 0 0 1-.39-1.19" fill="#fff"/>
    <path d="M222.94 187.11a10.25 10.25 0 0 0 .91 7 4.64 4.64 0 0 1-.91-7" fill="#f9aac0"/>
  </g>
</svg>
<svg xmlns="http://www.w3.org/2000/svg" width="865.76" height="682.89" viewBox="0 0 865.76 682.89">
  <defs>
    <clipPath id="a">
      <path d="M145.39 451.21s-155.1-78.69-74.25-268.38c0 0 56-145.24 256-145.06 0 0 37.31-2.5 88 3 0 0 47.31 3 91-9 0 0 176.05-43.88 250.66 52.86 0 0 43.77 43.05 57.7 145.18 0 0 23 118.24-111.35 203.93 0 0-142 97.66-367 78.71.1.01-106.88-11.79-190.76-61.24" fill="none"/>
    </clipPath>
    <clipPath id="b">
      <path fill="#fddfd2" d="M334.27 166.11h98.61v152.71h-98.61z"/>
    </clipPath>
  </defs>
  <g style="isolation:isolate">
    <g clip-path="url(#a)">
      <path d="M32.75 3.94h798.46v522.31H32.75z"/>
      <path fill="#fff" opacity=".7" d="M32.75 3.94h798.46v522.31H32.75z"/>
      <path fill="#f0f5fc" d="M94.31 73.24h231.17v286.38H94.31z"/>
      <path fill="#fff" d="M100.67 73.24h217.4V355.6h-217.4z"/>
      <path fill="#f9e4de" d="M255.9 73.24h5.86v286.38h-5.86zm-81.83 0h5.86v286.38h-5.86z"/>
      <path fill="#f9e4de" d="M96.13 133.13h228.94v6.9H96.13z"/>
      <path fill="#f0f5fc" d="M514.67 73.24h231.17v286.38H514.67z"/>
      <path fill="#fff" d="M521.03 73.24h217.4V355.6h-217.4z"/>
      <path fill="#f9e4de" d="M676.25 73.24h5.86v286.38h-5.86zm-81.82 0h5.86v286.38h-5.86z"/>
      <path fill="#f9e4de" d="M516.49 133.13h228.94v6.9H516.49z"/>
      <path fill="#ffc832" d="M426.83 216.74h-11.54v1.09l11.54 11.57z"/>
      <path fill="#ffc832" d="M415.29 217.83v73.37h11.54v-61.8z"/>
      <path fill="#ffc832" d="M438.08 216.74h-11.25v12.66l11.25 11.28z"/>
      <path fill="#ffc832" d="M426.83 229.4v61.8h11.25v-50.52z"/>
      <path fill="#f5f6f6" d="M417.66 220.21v51.12h9.17V229.4z"/>
      <path fill="#fff" d="M426.83 220h-9.17v.21l9.17 9.19z"/>
      <path fill="#ecedee" d="M435.71 220h-8.88v9.4l8.88 8.9z"/>
      <path fill="#e2e3e4" d="M426.83 229.4v41.93h8.88V238.3zm-.14 56.6a4.86 4.86 0 0 1 0-9.72h.17a4.86 4.86 0 0 1 0 9.71h-.17Z"/>
      <path d="M422.56 281.13a4.13 4.13 0 0 0 4.13 4.14h.14V277h-.14a4.13 4.13 0 0 0-4.13 4.13" fill="#f5f6f6"/>
      <path d="M426.83 277v8.25a4.13 4.13 0 0 0 0-8.25" fill="#e2e3e4"/>
      <path d="M449.62 216.74h-11.54v23.94l11.54 11.56z"/>
      <path d="M438.08 240.68v50.52h11.54v-38.96zm22.79-23.94h-11.25v35.5l11.25 11.28z"/>
      <path d="M449.62 252.24v38.96h11.25v-27.68z"/>
      <path fill="#fff" d="M449.62 220h-9.17v23.05l9.17 9.19z"/>
      <path fill="#f5f6f6" d="M440.45 243.05v28.28h9.17v-19.09z"/>
      <path fill="#ecedee" d="M458.5 220h-8.88v32.24l8.88 8.9z"/>
      <path fill="#e2e3e4" d="M449.62 252.24v19.09h8.88v-10.19zm-.15 33.76a4.86 4.86 0 0 1 0-9.72h.18a4.86 4.86 0 0 1 0 9.71h-.18Z"/>
      <path d="M445.35 281.13a4.12 4.12 0 0 0 4.12 4.14h.15V277h-.15a4.12 4.12 0 0 0-4.12 4.13" fill="#f5f6f6"/>
      <path d="M449.62 277v8.25a4.13 4.13 0 0 0 0-8.25" fill="#e2e3e4"/>
      <path d="m395.6 213.59-16.66 72.56 11.25 2.59 16.66-72.56zm22.21 5.12-10.96-2.53-16.66 72.56 10.96 2.53z"/>
      <path fill="#fff" d="m397.18 217.3-11.49 50.01 8.95 2.07 11.48-50.02z"/>
      <path fill="#e6e7e8" d="m414.77 221.36-8.65-2-11.48 50.02 8.65 1.99z"/>
      <path d="M392.3 283.75a4.7 4.7 0 0 1-.92-.08h-.14a4.86 4.86 0 0 1 1.08-9.6 5 5 0 0 1 1.09.12h.14a4.85 4.85 0 0 1-1.25 9.54Z" fill="#e2e3e4"/>
      <path d="M393.22 274.87a4.13 4.13 0 0 0-1.85 8.06h.15l1.84-8Z" fill="#fff"/>
      <path d="M396.32 279.83a4.13 4.13 0 0 0-3-4.92l-1.84 8a4.14 4.14 0 0 0 4.84-3.08" fill="#e6e7e8"/>
      <path fill="#f9c4b7" d="M368.98 291.6h103.38v8.42H368.98z"/>
      <path d="M419.17 100.39a39.75 39.75 0 1 0 39.65 39.75 39.7 39.7 0 0 0-39.65-39.75" fill="#a7a9ac" style="mix-blend-mode:multiply"/>
      <path d="M461.83 138.63a39.66 39.66 0 1 1-39.65-39.75 39.71 39.71 0 0 1 39.65 39.75" fill="#fff"/>
      <path d="M454.27 138.63a32.1 32.1 0 1 1-32.09-32.18 32.14 32.14 0 0 1 32.09 32.18" fill="#f9e4de"/>
      <path fill="#fcd6ca" d="m445.94 125.3-21.46 15.95-21.46-8.93-1.38 3.31 21.1 8.78.38.16.19-.14 23.73-17.64z"/>
    </g>
    <ellipse cx="412.67" cy="624.72" rx="318.08" ry="36.32"/>
    <ellipse cx="412.67" cy="624.72" rx="318.08" ry="36.32" fill="#fff" opacity=".7"/>
    <rect x="284.14" y="106.77" width="364.29" height="513.99" rx="10.93"/>
    <path fill="#fff" d="M299.52 119.7h335.41v477.47H299.52z"/>
    <path d="M267.06 573.07s-.41 3.1 2.94 11.32a60 60 0 0 0 3.44 6.94 27.83 27.83 0 0 1 3.67 16.26s-2.68 19.84 7 17.26c0 0 4.14.55 10.05-13.83a44.1 44.1 0 0 0 3.24-18.27l-.51-15.75a63 63 0 0 1 .45-9.68c.68-5.79.5-16.13-9.95-14.64 0 0-5.67 1.29-8.48 0Z" fill="#ffc832"/>
    <path fill="#fddfd2" d="M334.27 166.11h98.61v152.71h-98.61z"/>
    <g clip-path="url(#b)">
      <path d="m371.72 450.11-3 2.54a10.6 10.6 0 0 1-4.72 1.52h-8.31c-1.72 0-1-1.78-1-1.78a.83.83 0 0 0 .8.58h7.4c3.45.41 7.76-3.43 8.79-4.4a1.4 1.4 0 0 0 .32-.57c0-.1.07-.22.1-.33a2.4 2.4 0 0 1-.38 2.44" fill="#272727"/>
      <path d="M364.25 429.1v6.13a4.36 4.36 0 0 0-.79 2.83s4.32-1.15 7 1.23h1.76s.18-8.31 1.06-9.93Zm39.97-.02v6.14a4.36 4.36 0 0 1 .79 2.83s-4.32-1.15-7 1.23h-1.76s-.18-8.31-1.06-9.93Z" fill="#ffb8ca"/>
      <path d="M366.11 281s-6.18 7.71-9.28 28.06a85 85 0 0 0-.89 15.64l3.48 104.3 17.69.51 6.61-65.92 6.14 66.36h18.44l2.85-70.95.8-40.94s-.41-24.29-10.74-37.94l-7.08-6.55-21.9 5.83Z" fill="#272727"/>
      <path d="M367.39 217.17s-3.1-1.43-3.22-8.47c0 0-.36-1.07.72-8.47 0 0 1.19-6.08 1.9-10.25 0 0 1.2-9.43 10.26-11.69a23.08 23.08 0 0 1 14.63.61 11.06 11.06 0 0 1 4.11 2.91c2 2.3 4.84 6.81 5.36 14.49v15.15s.71 4.41-2.87 6.2a10.5 10.5 0 0 0 .24-3s-1.55 4.29-4.65 2.5a4.8 4.8 0 0 1-3.22.48l-13.9-.48A16.2 16.2 0 0 0 370 217a1.66 1.66 0 0 1-1.56-.51 6.26 6.26 0 0 1-1.49-2.8 10.6 10.6 0 0 0 .44 3.48" fill="#ffc832"/>
      <path d="M366.13 203.3c0 .73.05 1.46.06 2.18s0 1.45.07 2.17.07 1.43.15 2.15a13 13 0 0 0 .39 2.12 6.6 6.6 0 0 1-.75-2.07 12.4 12.4 0 0 1-.26-2.18 17.3 17.3 0 0 1 .34-4.37m27.22 13.08c.11-.55.16-1.1.22-1.64l.15-1.65c0-.55.1-1.1.17-1.65a16 16 0 0 1 .24-1.65 14.4 14.4 0 0 1 .06 3.35 14 14 0 0 1-.26 1.66 5.4 5.4 0 0 1-.58 1.58" opacity=".2"/>
      <path d="M371.13 203.3h.64v6.49h-.64z"/>
      <ellipse cx="371.38" cy="210.98" rx="1.14" ry="2.1"/>
      <path d="M390.78 214v5.31l-7 4.69-6.56-4.86v-4.74a9.68 9.68 0 0 0 6.56 2.74 9.88 9.88 0 0 0 7-3.14" fill="#ffb8ca"/>
      <path d="m394.13 222.86-7.26 7-3.07-5.11-3.21 5.11-7-7.46 1.76-2.51a1.38 1.38 0 0 1 1.93-.76l6.56 4.86 7-4.69c1.02-.68 3.29 3.56 3.29 3.56" fill="#272727"/>
      <path d="M425.87 281a30.2 30.2 0 0 0-4.32 6.35c-1.08 2.77-5.47 3.11-5.47 3.11l-1.82 1.29a.61.61 0 0 1-.89-.18l-5.25-8.85a1.18 1.18 0 0 1 .1-1.34l.49-.58a47 47 0 0 1 1.19-5.69 5.8 5.8 0 0 0 .21-2 3.5 3.5 0 0 1 .58-2 5.8 5.8 0 0 0-.13-1.72.46.46 0 0 0-.88 0 26 26 0 0 1-3.75 8.65 4.54 4.54 0 0 1-3.76 2.06 19.6 19.6 0 0 1-5.27-.9 4.6 4.6 0 0 0-1.77-.16C384 280.28 365.48 281 365.48 281l-.67.22c.22 1.35-.68 1.69-.68 1.69l-5.63 3.14a6.77 6.77 0 0 1-7.41 0l-4.72-2.05c-2.7-1.24-2.82-6.75-2.82-6.75-1-11 5.85-35.76 5.85-35.76a15.3 15.3 0 0 1 10.6-13.43l13.57-5.62 7 7.46 3.21-5.11 3.07 5.11 7.26-7 15.53 7c8.24 3.12 11.08 15.59 11.08 15.59 5.61 10.34 7.09 26.08 7.09 26.08a14.25 14.25 0 0 1-1.94 9.43"/>
      <path d="M356 236.68c.81 1.5 1.57 3 2.3 4.57s1.42 3.1 2.06 4.68 1.24 3.19 1.74 4.82a21 21 0 0 1 .63 2.5 7.5 7.5 0 0 1 .11 2.63c-.31 2.21-.63 4.42-1 6.62s-.69 4.4-1.07 6.6c.24-2.22.49-4.43.77-6.65s.55-4.42.85-6.63a7.3 7.3 0 0 0-.13-2.45c-.17-.82-.38-1.64-.62-2.45-.48-1.63-1.06-3.23-1.67-4.81-1.24-3.2-2.6-6.32-3.97-9.43m28.26 5.16c-.08-1.27-.12-2.54-.15-3.8s-.05-2.54-.06-3.8v-7.6a30 30 0 0 1 .39 3.79c.08 1.27.11 2.54.12 3.8s0 2.54 0 3.81-.19 2.53-.3 3.8m16.95 36.64c.58-.77 1.13-1.56 1.68-2.34s1.06-1.59 1.56-2.41 1-1.64 1.42-2.48.86-1.72 1.26-2.59a16 16 0 0 1-.92 2.75 21 21 0 0 1-1.36 2.57 21.3 21.3 0 0 1-3.64 4.5m7.47-16.34a18.5 18.5 0 0 1 .11-6.46 19 19 0 0 1 .86-3.14l1.08-3c.75-2 1.49-4 2.26-6.05l1.16-3c.4-1 .79-2 1.21-3-.32 1-.66 2.05-1 3.07l-1 3.06c-.7 2-1.44 4-2.16 6.08a51 51 0 0 0-2 6.09 21 21 0 0 0-.46 3.17 19 19 0 0 0-.06 3.18m1.99 7.86a10 10 0 0 1 1.41-.83c.5-.23 1-.45 1.53-.63a16 16 0 0 1 3.2-.78 16.6 16.6 0 0 1 3.3-.13c.55 0 1.09.1 1.63.16s1.08.2 1.61.32c-1.09-.06-2.17-.15-3.25-.12a25 25 0 0 0-3.22.24 24 24 0 0 0-3.16.66 18.6 18.6 0 0 0-3.05 1.11m-.92 11.22a52 52 0 0 1 3.41 4c1.07 1.4 2.11 2.82 3 4.32a48 48 0 0 1-3.41-4 51 51 0 0 1-3-4.32" opacity=".2"/>
      <path fill="#ffb8ca" d="m413.37 291.6-2.05 2.07-.36.37-.68.69-.34.33-.6.62-.12.13-.12.28-2.67 6.77-6.1-10.96 3.6-2.18.24-.15.12-.17.92-1.28.36-.5 2.97-4.16z"/>
      <path d="m405.56 291.77-.39.26a17 17 0 0 1-1.24-2.31l.24-.15.12-.17a20 20 0 0 0 1.27 2.37m3.78 3.91-.12.13-.12.28a11.8 11.8 0 0 1-2.15-2l.36-.29a11 11 0 0 0 2.03 1.88" fill="#ffc832"/>
      <circle cx="405.69" cy="292.3" r=".66" fill="#ffc832"/>
      <circle cx="407" cy="293.72" r=".66" fill="#ffc832"/>
      <path d="M407.56 291.59a10.6 10.6 0 0 0 2.72 3.14l-.34.34c-2.21-1.37-4.35-6.08-4.73-6.95l.36-.5c2.13 4.58 5.27 5.87 5.75 6.05l-.32.33a9 9 0 0 1-3.44-2.41" fill="#ffc832"/>
      <path d="M364.55 283.46a39 39 0 0 0 4.8.78c.8.1 1.61.16 2.41.25l2.42.16c3.24.18 6.48.19 9.71.09s6.48-.29 9.71-.54c1.61-.13 3.22-.3 4.84-.45l4.83-.55c-1.6.27-3.2.52-4.8.78s-3.23.41-4.84.59l-2.43.22c-.8.08-1.61.14-2.42.19l-2.44.14c-.81.05-1.62.06-2.43.09a96 96 0 0 1-9.75-.2l-2.43-.23c-.8-.1-1.61-.18-2.41-.31a35 35 0 0 1-4.77-1.01"/>
      <circle cx="383.11" cy="282.48" r="1.25"/>
      <path d="M398.17 287.9c.88 1.36 1.71 2.76 2.53 4.15s1.63 2.81 2.42 4.22 1.57 2.84 2.33 4.28l1.12 2.15c.37.73.74 1.45 1.09 2.18-.44-.68-.86-1.38-1.29-2.07l-1.24-2.09c-.83-1.39-1.63-2.8-2.42-4.22s-1.57-2.83-2.32-4.27-1.51-2.87-2.22-4.33m-31.79-.6a26.7 26.7 0 0 1-1.19 4.48 42 42 0 0 1-1.78 4.29 45 45 0 0 1-2.25 4.06c-.4.66-.85 1.29-1.28 1.93s-.91 1.25-1.39 1.86c.8-1.33 1.61-2.63 2.36-4l.56-1 .53-1c.37-.68.7-1.37 1-2.06q1-2.07 1.87-4.21c.29-.71.56-1.43.81-2.15s.55-1.5.76-2.2m16.73 25.28c.12 4 .18 8 .24 12l.13 12v18l-.09 6-.14-6-.1-6-.13-12v-12c-.02-3.99-.02-7.99.09-12m-11.01 135.1c0 .11-.07.23-.1.33a1.4 1.4 0 0 1-.36.56c-1 1-5.34 4.81-8.79 4.4h-7.4a.83.83 0 0 1-.8-.58c-.3-1-.46-3 2.28-5.25a67 67 0 0 0 6.53-9.08s4.23-1.33 7 1.23h1.76s.6 5.62-.12 8.39"/>
      <path d="M362.33 441a7 7 0 0 1 1.57-.21 7.7 7.7 0 0 1 1.59.1 6 6 0 0 1 1.55.44 3.4 3.4 0 0 1 1.29.94 6.5 6.5 0 0 0-1.42-.6 13 13 0 0 0-1.49-.32c-1.01-.15-2.04-.22-3.09-.35m-1.87 2.4a7 7 0 0 1 1.58-.21 8.5 8.5 0 0 1 1.59.09 7.2 7.2 0 0 1 1.55.44 3.6 3.6 0 0 1 1.29.95 6.7 6.7 0 0 0-1.42-.6 11 11 0 0 0-1.49-.32c-1.02-.17-2.04-.23-3.1-.35" opacity=".2"/>
      <path d="M396.37 447.67a3 3 0 0 0 .1.33 1.35 1.35 0 0 0 .36.55c1 1 5.33 4.82 8.79 4.41H413a.83.83 0 0 0 .8-.58c.3-1 .46-3-2.28-5.25a67 67 0 0 1-6.53-9.08s-4.23-1.33-7 1.23h-1.76s-.58 5.62.14 8.39"/>
      <path d="m396.75 450.1 3 2.54a10.6 10.6 0 0 0 4.71 1.52h8.31c1.73 0 1-1.78 1-1.78a.83.83 0 0 1-.8.58h-7.4c-3.46.41-7.76-3.43-8.79-4.41a1.35 1.35 0 0 1-.36-.55 3 3 0 0 1-.1-.33 2.4 2.4 0 0 0 .43 2.43" fill="#272727"/>
      <path d="M406.14 441c-1.05.12-2.08.18-3.09.35a11 11 0 0 0-1.49.32 6.5 6.5 0 0 0-1.42.6 3.4 3.4 0 0 1 1.29-.94 6.4 6.4 0 0 1 1.55-.45 8.5 8.5 0 0 1 1.59-.09 7 7 0 0 1 1.57.21m1.86 2.39c-1.06.11-2.09.18-3.1.35a11 11 0 0 0-1.49.32 7 7 0 0 0-1.42.59 3.5 3.5 0 0 1 1.29-.94 6.5 6.5 0 0 1 1.55-.44 8.5 8.5 0 0 1 1.59-.09 7 7 0 0 1 1.58.21" opacity=".2"/>
      <rect x="367.94" y="243.8" width="28.35" height="35.97" rx="2.9" transform="rotate(-10.71 381.952 261.698)" fill="#fff"/>
      <path d="m366.348 247.734 25.294-4.83.088.462-25.293 4.83z"/>
      <ellipse cx="379.52" cy="249.57" rx="3.56" ry="1.7" transform="rotate(-15.73 379.43 249.534)"/>
      <path d="M389.62 215.05c-3.72 7-12.39 4.12-12.39 4.12v-5.87Z" fill="#f9aac0"/>
      <path d="M396.14 199.28c0 6.12-2.12 11.52-5.36 14.75a9.88 9.88 0 0 1-7 3.14 9.68 9.68 0 0 1-6.56-2.74c-3.47-3.16-5.78-8.77-5.78-15.15 0-9.88 5.52-17.89 12.34-17.89s12.36 8.01 12.36 17.89" fill="#ffb8ca"/>
      <ellipse cx="372.02" cy="200.23" rx="2.86" ry="3.94" fill="#ffb8ca"/>
      <path d="M369.91 197.58s7-3.49 11.23-9.1c0 0-1.35 4-3.58 5.42 0 0 6.68-1.36 8-9.4 0 0 6.2.1 7.36 9l1.08 15.78 5.33-4.53-6.33-23.36-11.33-2.12-12.47 11Z" fill="#ffc832"/>
      <path d="M371.07 194.28c1-.73 2-1.5 2.95-2.28s1.9-1.6 2.8-2.45 1.8-1.7 2.66-2.6 1.69-1.81 2.54-2.74c-.35.52-.71 1-1.08 1.54s-.78 1-1.19 1.45a32 32 0 0 1-2.61 2.7 31 31 0 0 1-2.9 2.38c-.51.37-1 .72-1.55 1.06s-1.06.66-1.62.94m12.72-9.49a5.9 5.9 0 0 1-.68 1.58 6 6 0 0 1-1.11 1.33 5.4 5.4 0 0 1 .68-1.58 6 6 0 0 1 1.11-1.33m3.65-1.26a6.8 6.8 0 0 1 1.62.56 9 9 0 0 1 1.45.92 9.1 9.1 0 0 1 2.25 2.62 11.1 11.1 0 0 1 1.16 3.24c.12.56.15 1.14.22 1.7s0 1.14 0 1.71c-.09-.57-.14-1.13-.22-1.68s-.18-1.11-.34-1.65a14 14 0 0 0-.52-1.58 12 12 0 0 0-.7-1.51 10.9 10.9 0 0 0-2.07-2.57 9.3 9.3 0 0 0-2.85-1.76m-1.84.97a22 22 0 0 1 0-6.49 22 22 0 0 1 0 6.49" opacity=".2"/>
      <path d="m362.05 270.57 8.29-1.34a1.67 1.67 0 0 0 1.28-1 13 13 0 0 1 4-5.23s6.15-4.15 7.26-2.55c0 0 .56.56-2.31 2.47l-2.47 2.4s4.47-.48 6.7-1.76c0 0 4.07-3.27 5.43-2.47 0 0 1.11.64-2 2.79l-3.07 2.46a.1.1 0 0 0 .1.18l4.38-1.66a21 21 0 0 0 2-.9c1-.51 2.54-1 3-.16 0 0 .56.81-.95 1.52 0 0 1.75.72.16 2 0 0-3.12 2.3-3.91 2.67 0 0 2 .05 1.19 1.56 0 0-1.59 1.6-7.66 2.79l-9.37 1.84a4 4 0 0 0-1 .32l-8.53 3.93Z" fill="#ffb8ca"/>
      <path fill="#272727" d="m364.81 270.12 2.01 9.28 2.85-1.31-1.67-8.48z"/>
      <path d="m364.81 281.25-3-11.64-4.63-.95.72 11.83s1.35 2.15 1.43 2.39a17.6 17.6 0 0 0 3.08 1Z"/>
      <path d="M361.8 283.2c-.3-1-.55-2-.8-3s-.46-2-.67-3-.4-2-.57-3l-.24-1.52c-.07-.51-.15-1-.2-1.53.16.49.28 1 .42 1.49l.38 1.49c.25 1 .46 2 .67 3s.4 2 .57 3 .33 2.05.44 3.07m-.4-13.2a9.1 9.1 0 0 1-3.78.69 8 8 0 0 1-1.91-.37 13 13 0 0 0-1.83-.37 24 24 0 0 0-3.78-.15 13 13 0 0 0-1.87.22 9.2 9.2 0 0 0-1.83.51 9.2 9.2 0 0 1 3.68-1.09 17.7 17.7 0 0 1 3.85 0 13.4 13.4 0 0 1 1.9.41c.31.09.62.2.91.27a9 9 0 0 0 .91.17 8.5 8.5 0 0 0 1.88 0 12 12 0 0 0 1.87-.29" opacity=".2"/>
      <path d="M347.63 267.32a18.6 18.6 0 0 1 4 .78 13 13 0 0 1 1.89.74 5.1 5.1 0 0 1 1.68 1.15 9 9 0 0 0-1.82-.81c-.63-.22-1.26-.44-1.9-.63-1.3-.4-2.58-.77-3.85-1.23" opacity=".2"/>
      <circle cx="367.52" cy="274.07" r="2.71" fill="#fff"/>
      <path d="M393.72 265.33a12.23 12.23 0 0 1-7.36 3.33 24 24 0 0 1 7.36-3.33M390 270a3.87 3.87 0 0 1-3.9 1.27A5 5 0 0 1 390 270m-6.79-69.4a18.5 18.5 0 0 1-.73 5l-.1-.31a14.5 14.5 0 0 1 1.62 1.91 14.4 14.4 0 0 1-2.16-1.51 18.4 18.4 0 0 1 1.41-5.09Z" fill="#f9aac0"/>
      <ellipse cx="377.38" cy="199.38" rx=".8" ry="1.22" fill="#272727"/>
      <ellipse cx="390.15" cy="199.38" rx=".8" ry="1.22" fill="#272727"/>
      <path d="M373.71 196.35a32 32 0 0 1 5.41-.09.49.49 0 0 0 .54-.33c.19-.58.15-1.51-2.28-1.29a6.64 6.64 0 0 0-3.67 1.71m20.29 0a32 32 0 0 0-5.41-.09.51.51 0 0 1-.55-.33c-.19-.58-.15-1.51 2.28-1.29a6.66 6.66 0 0 1 3.68 1.71" fill="#272727"/>
      <path d="M379.73 209.13h8.2a4.16 4.16 0 0 1-3 2.75 4.4 4.4 0 0 1-2 0 4.26 4.26 0 0 1-3.2-2.75" fill="#fff"/>
      <path d="M371 199a4 4 0 0 0 .25 3.39A2.09 2.09 0 0 1 371 199" fill="#f9aac0"/>
    </g>
    <path d="M545.58 237.91h-90a1.7 1.7 0 1 1 0-3.39h90a1.7 1.7 0 1 1 0 3.39m51.36-49.16h-90a1.7 1.7 0 1 1 0-3.39h90a1.7 1.7 0 1 1 0 3.39m0 17.07H455.57a1.7 1.7 0 0 1 0-3.4h141.37a1.7 1.7 0 0 1 0 3.4m0 17.06H455.57a1.7 1.7 0 1 1 0-3.39h141.37a1.7 1.7 0 1 1 0 3.39" fill="#fddfd2"/>
    <circle cx="562.13" cy="236.21" r="3.1" fill="#fddfd2"/>
    <circle cx="576.48" cy="236.21" r="3.1" fill="#fddfd2"/>
    <circle cx="590.97" cy="236.21" r="3.1" fill="#fddfd2"/>
    <path d="M545.58 319.16h-90a1.7 1.7 0 1 1 0-3.39h90a1.7 1.7 0 1 1 0 3.39M596.94 270h-90a1.7 1.7 0 1 1 0-3.39h90a1.7 1.7 0 1 1 0 3.39m0 17.07H455.57a1.7 1.7 0 1 1 0-3.39h141.37a1.7 1.7 0 1 1 0 3.39m0 17.07H455.57a1.7 1.7 0 0 1 0-3.4h141.37a1.7 1.7 0 0 1 0 3.4" fill="#fddfd2"/>
    <circle cx="562.13" cy="317.47" r="3.1" fill="#fddfd2"/>
    <circle cx="576.48" cy="317.47" r="3.1" fill="#fddfd2"/>
    <circle cx="590.97" cy="317.47" r="3.1" fill="#fddfd2"/>
    <path d="M551.93 378.31H334.27a1.7 1.7 0 0 1 0-3.39h217.66a1.7 1.7 0 1 1 0 3.39m42.14-32.09h-259.8a1.7 1.7 0 0 1 0-3.4h259.8a1.7 1.7 0 0 1 0 3.4m0 17.06h-259.8a1.7 1.7 0 0 1 0-3.39h259.8a1.7 1.7 0 0 1 0 3.39" fill="#fddfd2"/>
    <circle cx="562.13" cy="376.61" r="3.1" fill="#fddfd2"/>
    <circle cx="576.48" cy="376.61" r="3.1" fill="#fddfd2"/>
    <circle cx="590.97" cy="376.61" r="3.1" fill="#fddfd2"/>
    <path d="M555 514.93H337.33a1.7 1.7 0 1 1 0-3.39H555a1.7 1.7 0 1 1 0 3.39m42.12-32.09H337.33a1.7 1.7 0 0 1 0-3.4h259.79a1.7 1.7 0 1 1 0 3.4m0-18.33H373.54a1.7 1.7 0 1 1 0-3.39h223.58a1.7 1.7 0 1 1 0 3.39m0 35.39H337.33a1.7 1.7 0 1 1 0-3.39h259.79a1.7 1.7 0 1 1 0 3.39" fill="#fddfd2"/>
    <circle cx="565.19" cy="513.23" r="3.1" fill="#fddfd2"/>
    <circle cx="579.54" cy="513.23" r="3.1" fill="#fddfd2"/>
    <circle cx="562.02" cy="559.1" r="3.1" fill="#fddfd2"/>
    <circle cx="576.37" cy="559.1" r="3.1" fill="#fddfd2"/>
    <circle cx="590.85" cy="559.1" r="3.1" fill="#fddfd2"/>
    <path d="M551.93 437.46H334.27a1.7 1.7 0 0 1 0-3.4h217.66a1.7 1.7 0 1 1 0 3.4m42.14-32.1H373.54a1.7 1.7 0 1 1 0-3.39h220.53a1.7 1.7 0 0 1 0 3.39m0 17.07h-259.8a1.7 1.7 0 0 1 0-3.4h259.8a1.7 1.7 0 0 1 0 3.4" fill="#fddfd2"/>
    <circle cx="562.13" cy="435.76" r="3.1" fill="#fddfd2"/>
    <circle cx="576.48" cy="435.76" r="3.1" fill="#fddfd2"/>
    <circle cx="590.97" cy="435.76" r="3.1" fill="#fddfd2"/>
    <path d="M597.12 544.5H459.93a1.7 1.7 0 0 1 0-3.39h137.19a1.7 1.7 0 1 1 0 3.39m-45.19 16.29h-127a1.7 1.7 0 0 1 0-3.39h127a1.7 1.7 0 1 1 0 3.39" fill="#fddfd2"/>
    <path fill="#231f20" d="M397.84 119.7H537.2v12.73H397.84z"/>
    <path d="M527.53 84.37h-39.72c0-.43.05-.87.05-1.31a20.51 20.51 0 0 0-41 0c0 .44 0 .88.05 1.31h-39.4a9.67 9.67 0 0 0-9.67 9.63v25.5H537.2V94a9.67 9.67 0 0 0-9.67-9.63m-60.18 9.46a10.77 10.77 0 1 1 10.76-10.77 10.77 10.77 0 0 1-10.76 10.77" fill="#272727"/>
    <path d="M295.38 308.07s2 16.86-11.24 19.95l1.68 22.48s2.54 9.95 1.41 13.26a64.2 64.2 0 0 0-22.23 2.63 83 83 0 0 1-9.85 2.43c-10.78 1.93-33.53 5.4-51.11 4.16V310H199s2 13.77-10.68 18.27c0 0-18 3.36-14.32-23.32l14.78-62.52s1.87-15 15.18-15.57l21.72-7 23.85-.2 28.15 11.07s16 3.66 16 20.8c.01.07 3.11 29.57 1.7 56.54" fill="#ffc832"/>
    <circle cx="594.02" cy="513.23" r="3.1" fill="#fddfd2"/>
    <path d="M263.86 188.69c0 13.28-6 24.49-14.25 28a3 3 0 0 1-.36.16 13.8 13.8 0 0 1-5.13 1c-6.91 0-13-5.24-16.51-13.18a36.4 36.4 0 0 1-2.15-6.42 42 42 0 0 1-1.08-9.55c0-16.1 8.84-29.16 19.74-29.16s19.74 13.05 19.74 29.15" fill="#ffb8ca"/>
    <path d="M222.77 185s2.52.39 3.49 1.36c0 0 2.13-7 8.34-9.89 0 0 8.45-4.2 7.36-10.38a16.2 16.2 0 0 0 8.43 4.43 17.56 17.56 0 0 1 8.38 3.54 18.8 18.8 0 0 1 3.74 4s4.34 12.49-2.38 27.65c0 0-3.39 7.81-10.87 11.09l.27 2.9 10.47 4.14a69 69 0 0 0 7-11.48s-2.92 9.07-5.25 12.17l2.13.82s13.59-19.78 8-46.93c0 0-7.95-32.77-34.33-26.17 0 0-16.09-1.17-21.71 14.73 0 0-3.11 11.44-8.15 16.1 0 0-21.91 18.62-3.68 43.83l1.61-.52s-13.83-16.55-1-34.2c0 0-8.94 19.24 2.3 33.79l18.84-6.06Z" fill="#272727"/>
    <path d="M249.27 216.78c0-.1-.22-.27 0-.27Zm.38 7.22c-1 9.28-10.78 8.68-10.78 8.68-11.83.18-13.19-12.79-13.19-12.79L223.85 198l1.46.11.16.09a35.5 35.5 0 0 0 2.14 6.41c3.53 7.94 9.61 13.18 16.52 13.18a13.9 13.9 0 0 0 5.13-1v.3l.22 2.61a17.2 17.2 0 0 1 .17 4.3" fill="#ffb8ca"/>
    <path d="M249.65 224c-3.73.47-19.77 1.28-22-19.39 3.53 7.94 9.61 13.18 16.52 13.18a13.9 13.9 0 0 0 5.13-1l.05.28.22 2.61a17.2 17.2 0 0 1 .08 4.32" fill="#f9aac0"/>
    <path d="M271.6 283.42c.12-2.57.38-5 .73-7.53s.83-5 1.37-7.41 1.26-4.86 2.07-7.23a47.6 47.6 0 0 1 3-6.84 62 62 0 0 0-1.93 7.15c-.48 2.42-.89 4.84-1.17 7.28s-.5 4.88-.65 7.32-.26 4.92-.27 7.31Zm23.88 22.41c-2.06-2.41-3.77-4.89-5.58-7.3-.91-1.19-1.8-2.4-2.74-3.57s-1.93-2.29-3-3.46a12.1 12.1 0 0 1 4.13 2.36 20.8 20.8 0 0 1 3.23 3.48 24.7 24.7 0 0 1 2.43 4 18 18 0 0 1 1.53 4.49M276 321.84a9.25 9.25 0 0 1-3.13-2.69 22 22 0 0 1-2.22-3.4 25 25 0 0 1-1.6-3.71 18 18 0 0 1-.93-4 24 24 0 0 1 2.34 3.31c.69 1.13 1.35 2.27 2 3.43s1.19 2.33 1.77 3.5 1.06 2.39 1.77 3.56m-81.21-71.09a59 59 0 0 1 2 7.75 58 58 0 0 1 1 7.87l-2 .24a55 55 0 0 1-.94-7.87 58 58 0 0 1-.06-7.99" opacity=".2"/>
    <path d="M261.13 321.76a.42.42 0 0 1-.25.09Z" fill="none" stroke="#ed1c24" stroke-miterlimit="10"/>
    <path d="m261.13 321.76-.25.09H206a.42.42 0 0 1-.34-.19l-36.79-53.11a.42.42 0 0 1 .35-.66h56.57a.42.42 0 0 1 .35.19l35.13 53.11a.43.43 0 0 1-.14.57"/>
    <path d="m262.9 321.15-1.77.61a.43.43 0 0 0 .1-.57l-35.13-53.11a.42.42 0 0 0-.35-.19h-56.57l2-2a3 3 0 0 1 2.06-.85h52.59a3.28 3.28 0 0 1 2.75 1.5l34.69 53.54a.7.7 0 0 1-.37 1.07m2.73 158.1s23.95-89.53 21.6-115.49a64.2 64.2 0 0 0-22.23 2.63 83 83 0 0 1-9.85 2.43c-10.78 1.93-33.53 5.4-51.11 4.16 0 0-27 78.62-29.31 102.76 0 0-3.08 16 4.19 22.47l49 48.91-2.5 33.21a26 26 0 0 0 23.86 3.78s1.57-6.33 3.76-16A89.9 89.9 0 0 0 272.31 548s-4.84-5.84-12.05-14c4.19-22.14 7.52-45.27 5.37-54.75m-55.27 6.25 19.48-53.5s4.66 26.76 1.75 67.19l-.3 4c-7.62-7.48-15.03-13.97-20.93-17.69" fill="#272727"/>
    <path d="m229.84 432 2.7-36.36-.16 66.52s-1.08-23.69-2.54-30.16M228 547.12l24.44 24 .68-2.94s12.13-9.46 19.21-20.12c0 0-17.28 18.42-22.17 18.42Zm-17.64-61.62s42.89 40.41 49.9 48.5c0 0-34.2-38.9-49.9-48.5" fill="#231f20"/>
    <path d="m258.81 563.53 8.25 9.54s1.73-1 6.34-1.68a7.35 7.35 0 0 0 5.59-4c1.33-2.79 2.12-7.4-.08-14.65l-7.46-3.42Z" fill="#ffb8ca"/>
    <path d="M282.31 619.19a27.1 27.1 0 0 0 4.36-6.71 37 37 0 0 0 2.68-7.51 51.5 51.5 0 0 0 1.3-15.85l-.11-2-.23-2q-.21-2-.39-4c-.22-2.69-.43-5.37-.47-8.07s-.08-5.39.12-8.08a39 39 0 0 1 .51-4 14.7 14.7 0 0 1 1.2-3.85 24 24 0 0 0-1.22 7.89c-.1 2.68 0 5.36.15 8s.35 5.35.62 8c.13 1.34.28 2.67.43 4l.25 2 .13 2 .11 2v4l-.16 2c-.07 1.36-.34 2.69-.52 4s-.52 2.66-.91 4a36.8 36.8 0 0 1-3 7.53 25.3 25.3 0 0 1-4.85 6.65m-13.53-38.03a4.34 4.34 0 0 1 1.58-2.15 9.1 9.1 0 0 1 2.33-1.32 12.7 12.7 0 0 1 2.56-.68 11.6 11.6 0 0 1 2.63-.08c-.83.33-1.64.58-2.45.84s-1.61.53-2.38.85a16.4 16.4 0 0 0-2.25 1 7.9 7.9 0 0 0-2.02 1.54m1.69 4.35a9.6 9.6 0 0 1 1.59-1.77 12.6 12.6 0 0 1 1.92-1.4 10.3 10.3 0 0 1 2.2-1 5.7 5.7 0 0 1 2.39-.22 28 28 0 0 0-4.08 2.05c-1.32.83-2.6 1.61-4.02 2.34m2.31 4.63a6.6 6.6 0 0 1 1.37-1.82A10.6 10.6 0 0 1 276 587a11.6 11.6 0 0 1 4.29-1.46 42 42 0 0 1-3.79 2.33c-.64.35-1.25.72-1.87 1.1s-1.19.8-1.85 1.17m1.74 3.27a6 6 0 0 1 1.51-1.78 12.6 12.6 0 0 1 1.92-1.32 12.3 12.3 0 0 1 4.36-1.48 20 20 0 0 1-1.93 1.25c-.64.39-1.3.74-1.95 1.11-1.31.72-2.59 1.41-3.91 2.22" fill="#fff"/>
    <path d="m226.62 581.16-4.77 17.35s8.29-8.44 17.74-.73l2.33-12.28s-9.06.27-15.3-4.34" fill="#ffb8ca"/>
    <path d="M246.13 630.51c4-1.89 2.23-8.23.84-11.84a25.3 25.3 0 0 0-2.28-4.38 19.54 19.54 0 0 1-2.81-9.66 10.87 10.87 0 0 0-2-6c-5.6-7.91-16.41-1.45-16.41-1.45-3.76 1.94-1.64 8.9-1.64 8.9s1.15 8.31-.87 11.75a11.8 11.8 0 0 0-1.14 2.38c-1.29 3.91-2.66 13 12 13.07.06-.01 8.18.12 14.31-2.77" fill="#ffc832"/>
    <path d="M221 623.53c1.08.36 2.16.71 3.27 1s2.19.52 3.3.7a34 34 0 0 0 6.69.47 24.4 24.4 0 0 0 6.56-1.11l1.59-.53 1.52-.73c.26-.12.52-.22.77-.35l.72-.44q.72-.45 1.47-.87a18.3 18.3 0 0 1-5.81 3.65 20.3 20.3 0 0 1-6.79 1.38 26 26 0 0 1-6.87-.72 25 25 0 0 1-6.42-2.45m7-9.53a8 8 0 0 1 2.7-2 8.45 8.45 0 0 1 3.33-.81 9.3 9.3 0 0 1 1.74.14 8 8 0 0 1 1.63.58A7.5 7.5 0 0 1 240 614a16 16 0 0 0-2.94-1.35 8.6 8.6 0 0 0-3.05-.44A13.9 13.9 0 0 0 228 614m-.63-5.45a10 10 0 0 1 2.6-1.37 11.2 11.2 0 0 1 2.89-.64 7.8 7.8 0 0 1 3 .31 5 5 0 0 1 2.43 1.7 8.4 8.4 0 0 0-2.62-.94 11.2 11.2 0 0 0-2.72-.07 22 22 0 0 0-2.76.39c-.94.19-1.86.4-2.82.62m0-4.37a6.5 6.5 0 0 1 2.24-1.39 7.6 7.6 0 0 1 2.63-.5 6.8 6.8 0 0 1 2.65.47 6.35 6.35 0 0 1 2.23 1.42 22 22 0 0 0-2.45-.67 10.4 10.4 0 0 0-2.41-.22 16 16 0 0 0-4.89.89m0-3.92a6.6 6.6 0 0 1 2.12-1.36 7.7 7.7 0 0 1 2.48-.61 5.9 5.9 0 0 1 2.56.4 4.5 4.5 0 0 1 2 1.57 9.8 9.8 0 0 0-2.23-.83 9 9 0 0 0-2.27-.15 22.6 22.6 0 0 0-4.66.98" fill="#fff"/>
    <path d="M236.79 267.89c.52-2 1.15-3.88 1.77-5.79l2.71-5.32 5.38-10.66 5.35-10.66 2.69-5.32c1.17-1.64 2.34-3.28 3.6-4.87-.53 2-1.16 3.87-1.78 5.78l-2.7 5.33-5.34 10.62-5.39 10.66-2.68 5.34c-1.17 1.67-2.33 3.31-3.61 4.89" fill="#272727"/>
    <path d="M182.62 298.66s-5.19-4.14 2.88-6.05h14.2a2.86 2.86 0 0 1 2.52 1.39 3 3 0 0 1-.37 3.3s4.91.38 3.21 4c0 0 4.34 3-.94 4.71 0 0 2.62 3.21-8.37 5.48 0 0-11.06 3-10.68-1.89 0 0-3.21-2.26-1.7-4.9 0-.04-5.15-2.17-.75-6.04" fill="#ffb8ca"/>
    <path d="M185.82 298.27a47.8 47.8 0 0 1 14-.8 48 48 0 0 1-14 .8m.95 4.22a61 61 0 0 1 15.84-.85 61.4 61.4 0 0 1-15.84.85m1.69 5.58a50.2 50.2 0 0 1 14.15-2.1 49.9 49.9 0 0 1-14.15 2.1" fill="#f9aac0"/>
    <ellipse cx="224.19" cy="190.58" rx="5.01" ry="7.65" transform="rotate(-8.43 224.088 190.525)" fill="#ffb8ca"/>
    <path d="M269.24 305.83s12.87 2.57 12.87-14.33l-17-20.18s-2.7-2.51-2.66-8.07c0-.35 0-.72.05-1.09a68.5 68.5 0 0 0-.73-12.54 6.8 6.8 0 0 0-2.83-4.61l-7.35-5.1s-8.14-4.92-7.45 2.56c0 0-3.9 3.76-1.28 6.16 0 0-.65 4.58 2.4 4.8 0 0-1.74 5.67 2.62 8.29 0 0 0 6.77 4.36 8.51 0 0 7.46 8.95 11.15 19Z" fill="#ffb8ca"/>
    <path d="M248.51 258.62a6.9 6.9 0 0 1 .15-2.71 2.43 2.43 0 0 1 .83-1.25 1.9 1.9 0 0 1 1.59-.15c.23.09.46.18.68.29l.6.38 1.1.77.54.39.29.22a1.5 1.5 0 0 1 .31.35 1.65 1.65 0 0 1 0 1.8 10 10 0 0 0-1.82 4.69 4.86 4.86 0 0 0 .45 2.43 6.8 6.8 0 0 0 1.58 2.06 6 6 0 0 1-2-1.82 5 5 0 0 1-.8-2.69 9.5 9.5 0 0 1 1.76-5.21.67.67 0 0 0 0-.72c-.06-.11-.17-.18-.37-.34l-.53-.4a11.7 11.7 0 0 0-2.07-1.47 1.26 1.26 0 0 0-1 0 1.93 1.93 0 0 0-.71.86 8.5 8.5 0 0 0-.58 2.52m8.49-7.87a40 40 0 0 0-6.79-.62 7.05 7.05 0 0 0-3.12.72 4 4 0 0 0-1.87 2.58 4.05 4.05 0 0 1 .27-1.77 3.63 3.63 0 0 1 1.17-1.47 6.4 6.4 0 0 1 3.51-1.06 13 13 0 0 1 3.54.4 13.7 13.7 0 0 1 3.29 1.22m0-3.86a37 37 0 0 1-3.81-.22c-1.25-.11-2.54-.31-3.74-.47a7.7 7.7 0 0 0-3.49.47 8 8 0 0 0-1.61.84c-.5.37-1 .76-1.53 1.12.38-.51.81-1 1.22-1.5a6.5 6.5 0 0 1 1.6-1.17 6.93 6.93 0 0 1 3.91-.75c1.31.19 2.51.42 3.76.7a37 37 0 0 1 3.69.98m-12.88-4.42a2.53 2.53 0 0 1 1.2-.85 7.4 7.4 0 0 1 1.43-.38 13.5 13.5 0 0 1 2.91-.11 17.6 17.6 0 0 1 5.59 1.34c-1 0-1.91-.06-2.85-.12l-2.81-.22c-.92-.06-1.85-.12-2.77-.12a12 12 0 0 0-1.37.08 3.3 3.3 0 0 0-1.33.38" fill="#f9aac0"/>
    <path d="M660.73 413a135.6 135.6 0 0 0-3.18-22.42c-1.58-6.65-3.82-13.43-8-18.92-3.84-5-9.34-9-15.7-9.79-6.15-.75-11.93 2-16.53 5.86-5.71 4.81-10.07 11.16-14.17 17.33a214 214 0 0 0-12.23 21.4.23.23 0 0 0 .14.27.2.2 0 0 0 .23-.07 133 133 0 0 1 10.93-17.92 114.5 114.5 0 0 1 12.61-15.26c4.28-4.12 9.59-8 15.69-8.16s11.7 3.21 15.37 7.91c4.1 5.25 6.18 11.8 7.75 18.18a135.5 135.5 0 0 1 3.15 21.4c1.2 14.77 1.53 29.63 1.86 44.44.19 8.39.3 16.77.39 25.16 0 4.28.07 8.49.1 12.74s-.19 48.74.48 52.8c.14.83 1.43.75 1.63 0a73 73 0 0 0 .57-11.63c0-4 .1-48.52.14-52.57.07-7.83.12-15.7.09-23.49-.05-15.84-.23-31.61-1.32-47.26" fill="#272727"/>
    <path d="M608.49 376.14c-1.58.64.57-18.07-6.81-20.47-10.42-3.37-34.25 2.74-47.55 20.47a39.9 39.9 0 0 0-5.71 11.93c6.58-3.19 28.32-13.25 33.77-10.17 5 2.86-26.19 12.59-35.78 18.87a71 71 0 0 0-.85 7.85c5.55-3.93 20.82-13.91 27.64-13.91 7.59 0-17.58 13.31-27.76 22.83a80.7 80.7 0 0 0 5.88 27.11c2.61-4.94 8.35-14.54 15.77-19.72 10.28-7.14 14.78 4.37 1.83 13.51-6.91 4.88-11.89 8.91-15 11.62a53 53 0 0 0 11.5 14.86 42.3 42.3 0 0 1 16.91-11.56c2.5-.87 6.61-2 11.54-3.67.87-3.24 3.3-12.93 3.51-19.18.29-7.61 9.31-3.38 5.64 10.13-.68 2.54-1.31 4.64-1.91 6.4 2.64-1.05 7.92-3.06 11-5.41.5-4.43-.25-14.62-2.06-24.26-2.25-12 6.86-12.85 8.83 2.25.93 7-.4 14.17-.84 18.87 10.31-6 18.85-18.21 18.85-18.21a45.7 45.7 0 0 0-7.13-18.87c-5.07-7.65.41-10.66 5.49-3.75 2.86 3.85 4.51 10.32 5.44 15.28 10.88-36.3-2.53-44.72-32.2-32.8M559.06 416c-2.86-4.08 6.92-11.56 9-9 2.71 3.25-6.21 13.1-9 9m65-16.68c-3.94 2.85-7.72-6.6-5.17-8.22s8.49 5.66 5.11 8.17Z" fill="#008fa3"/>
    <path d="M615 393.87c-1.34-2.64-2.74-5.26-4.28-7.8a46.6 46.6 0 0 0-4.9-7.14c.43-.51.83-1 1.27-1.55.17-.22-.13-.5-.31-.3-.5.57-1 1.15-1.43 1.72a.4.4 0 0 0-.21.25c-1.83 2.19-3.56 4.45-5.2 6.76a77 77 0 0 0-8.56 2.48c-2.86 1-5.78 2-8.56 3.19-.3.11-.16.6.14.47 2.85-1.23 5.64-2.43 8.56-3.41s5.54-1.64 8.31-2.43c-.9 1.27-1.79 2.57-2.64 3.87a101 101 0 0 0-15.19 6.21c-5.13 2.44-10.08 5.28-15 8.13-.27.16 0 .58.27.41q7.28-4.23 14.93-7.72c4.77-2.22 9.69-4.06 14.5-6.19-12.1 18.88-19.35 40.67-29.06 60.83-.12.29.33.53.45.25 3-7.14 6.38-14 9.6-20.92l8.56-18.78c.85-1.83 1.72-3.66 2.6-5.47-.53 10.09-.31 20.34-2 30.31a.26.26 0 1 0 .5.12.24.24 0 0 0 0-.12c.7-10.77 2.6-21.4 2.53-32.21v-.14q3.06-6.18 6.59-12.13c4 9.43 8.22 19 10.09 29.14 0 .31.57.17.48-.14-2.72-10.16-5.25-20.34-10.14-29.71a113 113 0 0 1 8.56-12.29c1.34 2.51 3.07 4.88 4.59 7.28s3 4.69 4.29 7.13a103 103 0 0 1 7.57 16c.1.3.6.14.47-.14-2.38-5.34-4.74-10.73-7.38-15.96m79.33 26.56c-6.54-6.55-14.13-15.15-24.26-15.13-9.75 0-16.93 7.87-21 16-4.28 8.46-5.86 18.05-7.13 27.37a332 332 0 0 0-2.59 33.65c-.17 6.25-.15 12.51 0 18.76s.32 53.19 1.43 59.4c.19 1 1.81 1 1.87 0 .29-5.25.09-51 0-56.3s0-10.37.24-15.55c.39-10.49 1.14-20.95 2.37-31.4 1.09-9.1 1.93-18.46 4.65-27.26 2.47-7.93 7.07-17 15.12-20.47 11-4.77 21.67 3.92 28.85 11.26.32.13.65-.09.45-.33" fill="#272727"/>
    <path d="M733.18 442.45c-11.81-1.21-8.56-7.63 2.2-4.81a48.9 48.9 0 0 1 16 7.69c.08-9.73-1.13-19.62-4.75-28-9.86-2.47-18.84 1.87-28 6.19s-15.36-6.88-4.53-12.26a34.31 34.31 0 0 1 29.22-.52 47 47 0 0 0-2.64-4.14 49.2 49.2 0 0 0-9-10c-8.06.65-12.53 5.62-14.91 7.13-3.4 2.23-8.75-.4-5.36-5.22 2.64-3.78 9.24-5.51 14.69-6-9.72-5.7-19.41-5.7-24.9-3.23-9.52 4.28-6.85 29.42-6.85 29.42s-25-13.36-33.14-2.85a30.7 30.7 0 0 0-5.21 12.34c8.83-3.25 19.69-4 20.7 1.26 1.09 5.58-13.85 3.94-21.62 4.84-.92 11.19 1.69 24.26 10.59 33.5 7.59-14.58 24.45-25.68 26.86-17.62s-15.7 10.09-23.13 21a48.7 48.7 0 0 0 10.38 5.79c4.06-6.06 10.81-14.43 14.05-11.89s-5.25 8.45-10.75 13.22a157.5 157.5 0 0 0 24 6.62c2-8.4 5.85-16.27 9.56-15.54s-3.48 9.52-6.59 16.15a239 239 0 0 0 33 4.17c.69-.17 5.22-13.46 7.27-30a48.1 48.1 0 0 0-17.13-3.44c-8.35-.4-9.15-9.9 3.35-8.56a32 32 0 0 1 14.45 6q.18-2.61.3-5.34a47.25 47.25 0 0 0-18.11-5.9m-3.11-13c1.27-2.86 8.91-1.83 8.17 1.65s-9.24.75-8.17-1.66ZM667.57 453c-.46-2.37 4.65-4.54 5.36-2.64s-4.72 5.81-5.36 2.64m35.93 19.48c-4-2.11 1.76-11.42 5.48-9.89 3 1.23-1.41 12-5.48 9.89" fill="#008fa3"/>
    <path d="M741.68 487.83c-5.61-9.38-11.16-18.81-17-28q-4.12-6.42-8.57-12.62c.46-.08.9-.21 1.35-.31.74-.16 1.48-.31 2.22-.43 1.73-.3 3.47-.54 5.2-.73s3.28-.24 4.93-.27a25.7 25.7 0 0 1 5.26.27c.21 0 .24-.28 0-.27-1.75 0-3.54-.16-5.3-.18s-3.41 0-5.11.12-3.19.25-4.78.49c-.87.14-1.74.28-2.61.46-.51.11-1.06.18-1.57.34q-4.54-6.27-9.45-12.29a112.7 112.7 0 0 1 30.7-9.79c.19 0 .11-.31-.07-.28a104.2 104.2 0 0 0-31.14 9.44q-2.7-3.28-5.41-6.56a94 94 0 0 1-6-7.42.14.14 0 0 0-.2 0 .14.14 0 0 0 0 .2 110 110 0 0 1 7.13 8.7 108 108 0 0 0-11.41 9.17c-3.73 3.31-7.38 6.73-10.91 10.24a.14.14 0 0 0-.06.19.15.15 0 0 0 .19.07.2.2 0 0 0 .06-.06q5.24-5.2 10.92-10c3.78-3.19 7.77-6 11.58-9.16l2.61 3.44 1.33 1.71a.15.15 0 0 0 .09.13c1.42 1.9 2.85 3.8 4.35 5.71a45.6 45.6 0 0 0-4.28 7.82c-1.26 2.65-2.36 5.38-3.37 8.13a120 120 0 0 0-4.67 17.57c0 .19.23.27.28.09a102.4 102.4 0 0 1 5.1-17.23c1.09-2.85 2.33-5.71 3.61-8.45 1.16-2.54 2.57-5 3.67-7.55 1.26 1.69 2.5 3.36 3.74 5.06.36.48.7 1 1.06 1.42 0 .12 0 .26.11.26 3.85 5.38 7.52 10.89 11.09 16.45a5 5 0 0 0-.49 1.23c-.22.67-.44 1.36-.64 2a40 40 0 0 0-1 4.17c-.25 1.33-.43 2.65-.56 4a34 34 0 0 1-.33 4.53.15.15 0 0 0 .09.18.13.13 0 0 0 .18-.09.14.14 0 0 0 0-.09 14.3 14.3 0 0 1 .32-4.28c.2-1.43.47-2.85.8-4.28s.65-2.57 1-3.84c.18-.64.38-1.27.61-1.9.12-.32.27-.68.39-1l5 7.87c3.22 5.26 6.42 10.52 9.65 15.7.03.42.46.19.31-.08m-83.22 76.6c-.1-3.93-1-48.37-1.15-52.31a173 173 0 0 0-4.31-34.59 33.2 33.2 0 0 0-9.26-17 15 15 0 0 0-9.09-4.28 15.67 15.67 0 0 0-9.65 3 33.6 33.6 0 0 0-8.12 8.56 83 83 0 0 0-6.31 10.19c-.07.14.15.22.23.1a52.2 52.2 0 0 1 13.69-15.34 16 16 0 0 1 8.63-3.6 12.8 12.8 0 0 1 9 2.85c4.6 4 7 9.72 8.56 15.49 1.89 6.85 4.2 24.53 4.68 34.25.22 4.16.9 48.87 1.77 53a.69.69 0 1 0 1.34-.32Z" fill="#272727"/>
    <path d="M634 464.71c-9-.17-18.64 6.58-18.64 6.58s5.1-17.62-9.06-17.05c-8.42.34-18.92 9.16-21 22.93 3.25-1.73 10.09-5 15.49-5.14 7.34-.13 7.84 5.61-2.28 6.48a64.3 64.3 0 0 0-13.56 2.24 37.8 37.8 0 0 0 1.7 12.72c5.71-3.43 15.29-7.07 15.57-2.34.22 3.51-9.74 3.79-14.65 5a59 59 0 0 0 8.44 15 135.5 135.5 0 0 0 20.4-4.6 39 39 0 0 0-.65-7.38c-1.19-6.28 3.43-6.39 4-.35a22 22 0 0 1-.43 6.73 60.2 60.2 0 0 0 13.09-6.16 39.8 39.8 0 0 0-2.86-13.93c-1.8-4.91 1.77-7.72 4.78-2.08 1.94 3.64 1.16 10.47.52 14.27a22.2 22.2 0 0 0 4.28-4.37c9.63-13.38 3.86-28.35-5.14-28.55M595 468c.33-2.54 6.64-2.06 6.32-.09s-6.7 2.94-6.32.09m-7.05 20.69c.61-1.63 3.34-1.43 3.21-.12s-3.62 1.19-3.21.12m37.52 8.87c-3.67.15-2.46-7.47-.32-7.77 1.76-.29 3.09 7.63.28 7.74Z" fill="#008fa3"/>
    <path d="M622.16 498.22c-.36-.94-.67-1.91-1-2.86.27 1 .53 2 .7 3a.14.14 0 0 0 .18.08.13.13 0 0 0 .12-.22" fill="#263238"/>
    <path d="M618.42 486c-.67-1.95-1.43-3.88-2.17-5.81-.4-1-.83-2-1.27-3a12.4 12.4 0 0 0-1.27-2.55 21 21 0 0 0 1.16-2.47c0-.09-.09-.14-.13-.09a30 30 0 0 0-2.77 4.29c-.38.67-.75 1.34-1.15 2a21 21 0 0 0-2.37.37c-.86.16-1.7.33-2.54.53l-2.53.58c-.83.2-1.65.47-2.51.6-.19 0-.12.34.07.27a17 17 0 0 1 2.65-.7c.82-.17 1.63-.31 2.46-.43s1.64-.22 2.47-.31l1.87-.14c-.35.58-.69 1.18-1 1.78 0 .09-.1.19-.15.29a8 8 0 0 0-2 .23c-.73.14-1.43.27-2.18.44-1.49.31-3 .67-4.41 1.07-3.07.85-6.1 1.84-9.11 2.85-.17 0-.07.32.1.26a88 88 0 0 1 9.15-2.54c1.43-.33 2.85-.66 4.35-1l2.19-.47a14 14 0 0 0 1.68-.37c-1.56 2.86-3 5.79-4.37 8.78-2.94 6.5-5.41 13.18-7.92 19.85-.07.17.19.28.25.11a180 180 0 0 1 8.38-19.42c.57-1.15 1.16-2.29 1.73-3.44a4.6 4.6 0 0 0 .14.7c.14.79.28 1.57.41 2.37.27 1.57.55 3.16.77 4.74a55 55 0 0 1 1.15 9.83c0 .2.31.2.28 0a48 48 0 0 1-.36-4.79c-.1-1.59-.22-3.31-.41-4.95s-.4-3.19-.66-4.77c-.12-.78-.27-1.57-.41-2.35a4.9 4.9 0 0 0-.44-1.72c.83-1.67 1.64-3.34 2.48-5s1.58-3.11 2.4-4.65c.34-.66.71-1.32 1.07-2a20 20 0 0 0 .94 2.38l1.1 2.67c.8 2 1.55 4 2.31 6 1.07 2.86 2.26 5.71 3.14 8.68-.87-2.93-1.6-5.89-2.57-8.7" fill="#272727"/>
    <path d="M621.19 495.34a2.6 2.6 0 0 0-.2-.69 6 6 0 0 0 .2.69" fill="#263238"/>
    <path fill="#a5b9c5" d="m691.6 551.13-1 21.07-2.55 60.5h-56.03l-2.57-60.5-1-21.07z"/>
    <path fill="#d6dfe4" d="m691.6 551.13-1 21.07h-61.15l-1-21.07z"/>
    <path fill="#a5b9c5" d="M624.47 542.61h71.11v17.04h-71.11zm12.09 90.09h9.83v8.92h-9.83z"/>
    <path fill="#d6dfe4" d="M636.56 632.7h9.83v4.47h-9.83z"/>
    <path fill="#a5b9c5" d="M673.68 632.7h9.83v8.92h-9.83z"/>
    <path fill="#d6dfe4" d="M673.68 632.7h9.83v4.47h-9.83z"/>
    <path d="M235.83 179.79a13.2 13.2 0 0 1 3.29-.69 14.3 14.3 0 0 1 3.39.07 7.7 7.7 0 0 1 3.25 1.2 3.6 3.6 0 0 1 1.63 3 4.22 4.22 0 0 0-2-2.3 9.7 9.7 0 0 0-3-.87 52 52 0 0 0-6.56-.41m20.29 3.54a5.1 5.1 0 0 1 1.54-.66 7.6 7.6 0 0 1 1.64-.25 4.87 4.87 0 0 1 3.19.91l-3.16.09a20.6 20.6 0 0 1-3.21-.09" fill="#272727"/>
    <ellipse cx="242.97" cy="187.11" rx="1.36" ry="2.12" fill="#272727"/>
    <ellipse cx="259.31" cy="189.23" rx="1.36" ry="2.12" fill="#272727"/>
    <path d="M251.13 191.36a21 21 0 0 1 1 2c.3.67.57 1.34.83 2 .52 1.36 1 2.73 1.39 4.13l.18.63h-.62a33 33 0 0 1-4.73-.46 34 34 0 0 1 4.73-.46l-.44.61c-.5-1.36-1-2.74-1.35-4.14-.21-.7-.39-1.4-.55-2.11s-.34-1.47-.44-2.2" fill="#f9aac0"/>
    <path d="m241.61 203.81 12.27 1.09a13 13 0 0 1-1.76 2.18A6.16 6.16 0 0 1 242 205a11 11 0 0 1-.39-1.19" fill="#fff"/>
    <path d="M222.94 187.11a10.25 10.25 0 0 0 .91 7 4.64 4.64 0 0 1-.91-7" fill="#f9aac0"/>
  </g>
</svg>
